<?xml version="1.0" encoding="UTF-8"?>
<svg xmlns="http://www.w3.org/2000/svg" xmlns:xlink="http://www.w3.org/1999/xlink" width="44.11" height="31.4" version="1.1">
  <defs>
    <linearGradient id="l" x1="11.84" x2="40" y1="4.25" y2="7.41" gradientTransform="matrix(1.591,0,0,-1.702,-3.83,21.79)" gradientUnits="userSpaceOnUse">
      <stop stop-color="#fff" offset="0"/>
      <stop stop-color="#ededed" offset="1"/>
    </linearGradient>
    <linearGradient id="n" x1="11.74" x2="13.85" y1="11.48" y2="11.98" gradientTransform="matrix(1.504,0,0,-1.67,-2.51,22.2)" gradientUnits="userSpaceOnUse" xlink:href="#a"/>
    <linearGradient id="k" x1="15.74" x2="21.29" y1="30.96" y2="28.3" gradientTransform="translate(-2.3,-9.59)" gradientUnits="userSpaceOnUse">
      <stop stop-color="#fff" offset="0"/>
      <stop stop-color="#fff" stop-opacity="0" offset="1"/>
    </linearGradient>
    <linearGradient id="i" x1=".2727" x2="32.64" y1="7.991" y2="25.4" gradientTransform="matrix(1.343 0 0 1.418 .94 -10.28)" gradientUnits="userSpaceOnUse">
      <stop stop-color="#989690" offset="0"/>
      <stop stop-color="#2e3436" offset="1"/>
    </linearGradient>
    <linearGradient id="h" x1="8.92" x2="9.89" y1="37.2" y2="52.1" gradientTransform="matrix(2.455 0 0 .762 .94 -10.25)" gradientUnits="userSpaceOnUse">
      <stop stop-color="#888a85" offset="0"/>
      <stop stop-color="#b5beb5" offset="1"/>
    </linearGradient>
    <linearGradient id="j" x1="40.32" x2="18.5" y1="30.04" y2="6.105" gradientTransform="translate(-2.3,-9.59)" gradientUnits="userSpaceOnUse">
      <stop stop-color="#555753" offset="0"/>
      <stop stop-color="#989898" offset="1"/>
    </linearGradient>
    <linearGradient id="m" x1="10" x2="17.2" y1="20.2" y2="-7.53" gradientTransform="matrix(1.823,0,0,-1.431,-3.41,22.35)" gradientUnits="userSpaceOnUse" xlink:href="#a"/>
    <linearGradient id="g" x1="11.57" x2="18.48" y1="4.75" y2="26" gradientTransform="matrix(1.343 0 0 1.418 .94 -10.28)" gradientUnits="userSpaceOnUse" xlink:href="#a"/>
    <linearGradient id="a">
      <stop stop-color="#fff" offset="0"/>
      <stop stop-color="#e2e2e2" offset="1"/>
    </linearGradient>
    <radialGradient id="e" cx="27.74" cy="38.71" r="17.98" gradientTransform="matrix(.731 .534 -.171 .289 12.31 -5.87)" gradientUnits="userSpaceOnUse">
      <stop stop-opacity=".13" offset="0"/>
      <stop stop-opacity="0" offset="1"/>
    </radialGradient>
  </defs>
  <path d="m0.6 0.6v30.2h42.91l-0.09-30.2z" fill="url(#g)" stroke="url(#i)" stroke-linejoin="round" stroke-width="1.2"/>
  <path d="m17.02 16.38-15.55 12.76 16.1-11.17h10.47l14.42 11-13.77-12.61h-11.71z" fill="url(#h)"/>
  <path d="m1.7 1.74 0.02 27.75h40.56l-0.08-27.75z" fill="none" stroke="#fff"/>
  <path d="m20.32 20.96c-2.78-0.52-17.91-16.53-19.43-19.32-0.02-0.03-0.05-0.1-0.06-0.13h40.1c-0.32 2.91-8.73 19.2-11.1 19.45h-9.34c-0.04 0-0.09 1e-3 -0.14 0z" fill="url(#e)"/>
  <path d="m17.38 18.71c-2.78-0.43-14.92-14.46-15.88-16.9-1e-3 -0.03-0.03-0.08-0.04-0.11h41.3c-0.96 2.55-13.1 16.82-15.61 17.01z" fill="url(#n)" stroke="url(#j)" stroke-linejoin="round"/>
  <path d="m17.18 18.05c-2.45-0.57-14.98-14.53-15.78-16.3-0.065-0.13-0.216-0.48-0.216-0.6l41.53 0.33c-0.01938 0.07564-0.05464 0.1503-0.08 0.22-1.07 2.54-13.36 16-15.49 16.34h-9.79c-0.03 0-0.1 1e-3 -0.15 0" fill="url(#m)"/>
  <path d="m42.24 1.65c-1.73 2.7-12.9 15.76-15.36 15.98l-9.38-0.09c-2.85-0.64-14.1-13.59-15.45-15.89z" fill="none" stroke="url(#l)"/>
  <path d="m3.71 27.61h2.58l11.61-7.98 10.24-1.65-10.56 0.02z" fill="url(#k)"/>
</svg>
