<?xml version="1.0" encoding="UTF-8"?>
<svg xmlns="http://www.w3.org/2000/svg" width="70" height="92" version="1.0">
  <g fill="#0093dd">
    <g>
      <rect y="44.9" width="70" height="47.1"/>
      <rect x="4.7397" y="25.469" width="15.009" height="19.485"/>
      <rect x="50.118" y="25.695" width="15.185" height="19.24"/>
    </g>
    <path d="m35.625 0c-22.469 0.16165-30.875 20.998-30.875 25.562 6.1465-1e-6 12.812 0.34375 14.219 0.34375 0.33001 0 0.39885 7.2e-5 0.71875 0 1.6784-6.8703 7.8651-11.969 15.25-11.969 7.352 0 13.508 5.051 15.219 11.875 0.38707-1.87e-4 0.56404 0 0.96875 0 12.639 0 14.125 0.09375 14.125 0.09375s-5.0488-26.082-29.625-25.906z" fill-rule="evenodd"/>
  </g>
  <path d="m10.269 25.206c11.422-23.288 27.432-20.048 36.689-18.613 0 0-12.173-5.8297-23.874-0.082031-11.475 5.6368-12.815 18.695-12.815 18.695z" fill="#fff" fill-rule="evenodd"/>
  <path d="m-0.25 68.25s7.789-8.7013 14.062-11c8.1875-3 18.188-2.0625 34.75-5.375 5.8626-1.1725 7.6875-2.625 16.625-7.25 0.75499-0.3907 5.375-0.3125 5.375-0.3125l-0.375 6.25c-10.188 10.688-33.438 16.656-35.375 16.562 19.667 2.6384 30.166-7.5569 34.438-8.1875-9.9375 21.125-45.188 20.062-45.188 20.062 20.438 5.5625 37.062-2.75 37.062-2.75-9.3125 15.406-43.688 13.312-43.688 13.312-3.5938 0.3125-6.5 2.625-6.5 2.625l-11.062 0.3125-0.125-24.25z" fill="#fff" fill-rule="evenodd"/>
</svg>
