<?xml version="1.0" encoding="UTF-8"?>
<svg xmlns="http://www.w3.org/2000/svg" xmlns:xlink="http://www.w3.org/1999/xlink" width="505.839996" height="511.950012" viewBox="0 0 505.839996 511.950012">
<path fill-rule="evenodd" fill="rgb(94.509804%, 90.588235%, 14.901961%)" fill-opacity="1" d="M 94.8125 1.734375 L 95.144531 1.75 L 94.976562 2.34375 L 94.269531 2.171875 L 94.265625 2.472656 L 93.734375 2.308594 L 93.566406 1.605469 L 93.710938 1.144531 L 94.242188 1.289062 L 94.53125 1.078125 L 94.976562 1.316406 Z M 92.703125 2.457031 L 92.703125 2.597656 C 92.703125 3.429688 93.4375 4.164062 94.269531 4.164062 L 94.839844 4.164062 C 95.476562 4.164062 96.40625 3.425781 96.40625 2.882812 L 96.40625 2.171875 C 96.40625 1.269531 95.5 0.605469 94.554688 0.605469 C 93.683594 0.605469 92.703125 1.582031 92.703125 2.457031 Z M 92.703125 2.457031 "/>
<path fill-rule="evenodd" fill="rgb(6.27451%, 4.705882%, 5.882353%)" fill-opacity="1" d="M 93.734375 2.308594 L 94.265625 2.472656 L 94.265625 2.171875 L 94.972656 2.34375 L 95.140625 1.75 L 94.8125 1.734375 L 94.972656 1.316406 L 94.523438 1.078125 L 94.242188 1.289062 L 93.710938 1.144531 L 93.566406 1.605469 Z M 93.734375 2.308594 "/>
<path fill-rule="evenodd" fill="rgb(94.509804%, 90.588235%, 14.901961%)" fill-opacity="1" d="M 55.535156 5.871094 L 55.25 6.386719 L 54.277344 6.433594 L 54.082031 6.128906 L 54.390625 5.875 L 54.222656 5.414062 L 54.683594 5.019531 C 55.335938 5.320312 55.066406 4.769531 55.425781 5.128906 C 55.742188 5.445312 55.214844 5.378906 55.535156 5.871094 Z M 53.117188 6.871094 L 53.117188 7.296875 C 53.117188 7.816406 53.507812 8.433594 53.96875 8.433594 L 54.683594 8.433594 C 55.355469 8.433594 56.675781 7.03125 56.675781 6.15625 L 56.675781 5.445312 C 56.675781 5.101562 56.164062 4.589844 55.820312 4.589844 L 55.25 4.589844 C 54.273438 4.589844 53.117188 5.933594 53.117188 6.871094 Z M 53.117188 6.871094 "/>
<path fill-rule="evenodd" fill="rgb(6.27451%, 4.705882%, 5.882353%)" fill-opacity="1" d="M 55.535156 5.871094 C 55.214844 5.378906 55.742188 5.445312 55.425781 5.128906 C 55.066406 4.769531 55.335938 5.320312 54.683594 5.019531 L 54.222656 5.414062 L 54.390625 5.875 L 54.082031 6.128906 L 54.277344 6.433594 L 55.25 6.386719 Z M 55.535156 5.871094 "/>
<path fill-rule="evenodd" fill="rgb(96.078431%, 92.156863%, 13.72549%)" fill-opacity="1" d="M 11.828125 16.410156 L 12.136719 16.414062 L 11.953125 17.144531 L 11.519531 16.957031 L 11.148438 17.199219 L 10.65625 16.964844 L 10.796875 16.578125 L 10.585938 16.289062 L 10.835938 15.8125 L 11.222656 15.953125 L 11.496094 15.757812 L 11.988281 15.992188 Z M 9.828125 17.261719 C 9.828125 18.222656 10.664062 18.96875 11.679688 18.96875 L 11.820312 18.96875 C 12.675781 18.96875 13.53125 18.117188 13.53125 17.261719 L 13.53125 17.117188 C 13.53125 16.351562 12.761719 15.410156 11.964844 15.410156 L 11.394531 15.410156 C 10.492188 15.410156 9.828125 16.316406 9.828125 17.261719 Z M 9.828125 17.261719 "/>
<path fill-rule="evenodd" fill="rgb(6.27451%, 4.705882%, 5.882353%)" fill-opacity="1" d="M 10.585938 16.289062 L 10.796875 16.578125 L 10.65625 16.96875 L 11.148438 17.199219 L 11.519531 16.957031 L 11.953125 17.144531 L 12.136719 16.414062 L 11.828125 16.410156 L 11.988281 15.992188 L 11.496094 15.757812 L 11.222656 15.953125 L 10.835938 15.8125 Z M 10.585938 16.289062 "/>
<path fill-rule="evenodd" fill="rgb(6.27451%, 4.705882%, 5.882353%)" fill-opacity="1" d="M 114.066406 33.375 L 114.058594 33.632812 L 114.222656 33.632812 L 114.199219 34.058594 C 114.316406 34.140625 114.550781 34.34375 114.628906 34.34375 C 115.171875 34.34375 114.679688 34.386719 115.070312 34.179688 L 115.480469 34.480469 L 115.976562 34.308594 L 115.335938 33.378906 L 114.488281 33.214844 Z M 114.066406 33.375 "/>
<path fill-rule="evenodd" fill="rgb(54.117647%, 0.392157%, 43.137255%)" fill-opacity="1" d="M 71.628906 39.328125 L 72.835938 44.65625 L 73.054688 44.59375 C 74.722656 44.59375 76.828125 44.167969 78.636719 44.054688 C 81.835938 43.855469 81.546875 44.367188 83.210938 42.503906 C 85.28125 40.183594 87.390625 38.773438 90.28125 37.332031 C 96.59375 34.183594 101.867188 33.773438 111.214844 33.773438 L 111.246094 33.566406 L 101.554688 32.199219 L 101.53125 32.351562 L 96.546875 32.351562 C 91.535156 32.351562 86.832031 33.460938 82.828125 34.578125 C 79.011719 35.640625 73.703125 38.84375 71.628906 39.328125 Z M 71.628906 39.328125 "/>
<path fill-rule="evenodd" fill="rgb(94.509804%, 90.588235%, 14.901961%)" fill-opacity="1" d="M 114.207031 34.058594 L 114.226562 33.632812 L 114.0625 33.632812 L 114.074219 33.375 L 114.492188 33.214844 L 115.339844 33.378906 L 115.980469 34.308594 L 115.484375 34.480469 L 115.078125 34.179688 C 114.683594 34.386719 115.175781 34.34375 114.632812 34.34375 C 114.558594 34.34375 114.320312 34.140625 114.207031 34.058594 Z M 112.925781 34.058594 C 112.925781 35.117188 114.832031 36.050781 115.914062 36.050781 C 116.691406 36.050781 117.480469 35.722656 117.480469 34.914062 C 117.480469 33.679688 115.878906 32.921875 114.632812 32.921875 C 113.839844 32.921875 112.925781 33.304688 112.925781 34.058594 Z M 112.925781 34.058594 "/>
<path fill-rule="evenodd" fill="rgb(6.27451%, 4.705882%, 5.882353%)" fill-opacity="1" d="M 84.730469 133.136719 L 84.445312 133.136719 C 84.003906 133.136719 83.304688 132.296875 83.304688 131.710938 L 83.304688 131.425781 C 83.304688 130.433594 84.398438 129.292969 85.441406 129.292969 C 86.429688 129.292969 86.867188 130.144531 86.867188 131.144531 C 86.867188 132.207031 85.910156 133.136719 84.730469 133.136719 Z M 42.011719 121.460938 L 41.15625 121.460938 C 40.601562 121.460938 39.875 120.917969 39.875 120.464844 L 39.875 120.179688 C 39.875 119.03125 41.394531 118.472656 42.582031 118.472656 C 43.21875 118.472656 44.289062 118.851562 44.289062 119.46875 L 44.289062 119.898438 C 44.289062 120.648438 42.933594 121.460938 42.011719 121.460938 Z M 112.496094 107.9375 C 111.882812 107.9375 111.214844 106.882812 111.214844 106.230469 L 111.214844 105.234375 C 111.214844 104.636719 111.945312 103.382812 112.496094 103.382812 L 112.925781 103.382812 C 113.691406 103.382812 114.207031 104.875 114.207031 105.804688 L 114.207031 106.089844 C 114.207031 106.671875 113.34375 107.9375 112.496094 107.9375 Z M 6.84375 99.113281 L 6.84375 98.683594 C 6.84375 97.980469 7.421875 97.402344 8.125 97.402344 L 8.835938 97.402344 C 9.742188 97.402344 10.6875 98.328125 10.6875 99.253906 C 10.6875 100.203125 9.761719 100.820312 8.835938 100.820312 C 7.894531 100.820312 6.84375 100.066406 6.84375 99.113281 Z M 44.578125 118.472656 C 44.636719 118.242188 57.253906 108.335938 60.328125 100.765625 C 61.128906 98.785156 61.890625 96.632812 62.535156 94.574219 C 63.726562 90.765625 63.371094 92.0625 66.636719 90.273438 C 68.277344 89.371094 76.472656 83.3125 76.472656 83.3125 C 77.3125 86.914062 79.042969 85.054688 76.605469 89.277344 C 75.527344 91.148438 74.464844 92.820312 73.234375 94.589844 C 70.847656 98.023438 68.382812 101.425781 65.605469 104.476562 C 62.507812 107.875 49.480469 118.066406 44.578125 118.472656 Z M 131.152344 67.9375 C 131.152344 67.460938 131.679688 66.796875 132.148438 66.796875 L 132.863281 66.796875 C 133.828125 66.796875 134.855469 68.019531 134.855469 68.933594 L 134.855469 69.074219 C 134.855469 69.84375 134.207031 70.5 133.429688 70.5 L 133.144531 70.5 C 132.105469 70.5 131.152344 69.117188 131.152344 67.9375 Z M 90.570312 60.105469 C 98.835938 64.480469 112.640625 85.0625 112.640625 98.683594 L 112.675781 100.113281 L 112.5 102.527344 C 112.054688 102.203125 108.789062 87.136719 99.058594 80.660156 C 97.707031 79.757812 94.246094 78.816406 93.648438 77.246094 C 92.851562 75.164062 92.441406 72.800781 91.515625 70.550781 C 90.652344 68.453125 89.691406 66.4375 88.578125 64.652344 C 87.058594 62.214844 87.609375 61.671875 90.570312 60.105469 Z M 4.847656 58.824219 C 6.785156 58.824219 15.761719 61.839844 17.9375 62.535156 C 22.21875 63.898438 26.738281 64.976562 31.585938 65.835938 C 33.835938 66.234375 36.539062 66.730469 38.804688 67.011719 C 41.804688 67.386719 41.914062 68.722656 43.585938 70.632812 C 45.613281 72.953125 49.945312 77.019531 52.691406 78.46875 C 50.988281 81.011719 50.734375 82.128906 47.460938 81.144531 C 44.945312 80.386719 42.867188 79.738281 40.511719 78.832031 C 36.09375 77.125 31.777344 75.332031 27.675781 73.300781 C 23.417969 71.191406 19.851562 69.085938 15.988281 66.621094 C 14.21875 65.492188 5.972656 59.554688 4.847656 59.253906 Z M 0.71875 58.113281 L 0.71875 57.542969 C 0.71875 56.839844 1.296875 56.261719 2 56.261719 L 2.425781 56.261719 C 3.230469 56.261719 4.136719 57.3125 4.136719 58.113281 L 4.136719 59.109375 C 4.136719 59.453125 3.625 59.964844 3.28125 59.964844 L 2.570312 59.964844 C 1.695312 59.964844 0.71875 58.988281 0.71875 58.113281 Z M 112.921875 34.054688 C 112.921875 33.300781 113.839844 32.917969 114.632812 32.917969 C 115.878906 32.917969 117.480469 33.675781 117.480469 34.910156 C 117.480469 35.71875 116.691406 36.046875 115.914062 36.046875 C 114.832031 36.046875 112.921875 35.113281 112.921875 34.054688 Z M 71.628906 39.324219 C 73.699219 38.839844 79.007812 35.636719 82.824219 34.574219 C 86.828125 33.457031 91.53125 32.347656 96.546875 32.347656 L 101.53125 32.347656 L 101.550781 32.195312 L 111.242188 33.5625 L 111.214844 33.769531 C 101.867188 33.769531 96.59375 34.175781 90.277344 37.324219 C 87.386719 38.765625 85.277344 40.179688 83.207031 42.5 C 81.546875 44.363281 81.832031 43.851562 78.636719 44.050781 C 76.828125 44.164062 74.71875 44.589844 73.050781 44.589844 L 72.832031 44.652344 Z M 9.828125 17.257812 C 9.828125 16.3125 10.492188 15.40625 11.394531 15.40625 L 11.964844 15.40625 C 12.761719 15.40625 13.53125 16.347656 13.53125 17.113281 L 13.53125 17.257812 C 13.53125 18.113281 12.675781 18.964844 11.820312 18.964844 L 11.679688 18.964844 C 10.664062 18.964844 9.828125 18.21875 9.828125 17.257812 Z M 50.746094 30.722656 L 51.125 34.625 C 51.125 38.871094 52.660156 41.402344 52.863281 43.65625 C 52.964844 44.769531 50.746094 50.066406 50.695312 52.277344 C 49.460938 51.988281 43.148438 46.382812 43.148438 45.585938 L 43.148438 43.167969 C 43.148438 36.890625 45.183594 29.140625 46.878906 24.402344 C 47.679688 22.167969 52.769531 9.265625 54.164062 9.128906 Z M 53.117188 6.863281 C 53.117188 5.929688 54.273438 4.585938 55.253906 4.585938 L 55.820312 4.585938 C 56.164062 4.585938 56.675781 5.097656 56.675781 5.441406 L 56.675781 6.152344 C 56.675781 7.027344 55.355469 8.429688 54.683594 8.429688 L 53.972656 8.429688 C 53.507812 8.429688 53.117188 7.8125 53.117188 7.292969 Z M 70.917969 38.753906 L 70.917969 41.742188 C 70.917969 42.550781 72.148438 44.667969 72.472656 45.207031 L 81.3125 44.304688 L 82.878906 44.304688 C 93.132812 44.304688 103.808594 48.039062 110.59375 51.617188 C 115.5 54.207031 128.234375 62.4375 130.863281 66.371094 C 130.042969 66.152344 120.917969 60.695312 118.199219 59.527344 C 113.945312 57.703125 108.300781 55.835938 102.242188 55.835938 C 93.28125 55.835938 91.492188 58.859375 86.4375 62.242188 C 90.984375 69.03125 94.695312 77.832031 94.695312 89.148438 L 94.695312 94.128906 C 94.695312 100.347656 93.636719 108.71875 92.460938 113.820312 C 91.746094 116.933594 87.585938 128.53125 85.410156 128.597656 L 87.679688 114.527344 L 87.433594 114.488281 L 87.433594 109.503906 C 87.433594 97.328125 78.632812 90.234375 76.753906 82.171875 C 73.644531 84.253906 71.480469 86.929688 67.480469 89.269531 C 64.003906 91.304688 60.105469 92.953125 55.957031 94.261719 C 48.300781 96.675781 38.074219 99.539062 28.199219 99.539062 L 27.335938 99.65625 L 11.253906 98.6875 L 11.253906 98.402344 C 19.984375 96.367188 28.757812 95.648438 35.984375 91.949219 C 39.480469 90.160156 53.253906 81.835938 53.546875 78.328125 C 50.9375 77.722656 43.980469 70.539062 42.199219 68.316406 C 39.015625 64.351562 36.289062 59.882812 33.804688 55.214844 C 28.886719 45.976562 24.195312 35.90625 19.101562 26.921875 C 17.859375 24.734375 16.398438 22.359375 14.816406 20.515625 C 11.28125 16.394531 17.34375 20.617188 18.484375 21.417969 C 22.441406 24.183594 26.347656 28.25 29.5625 31.835938 C 32.859375 35.507812 47.496094 52.484375 50.980469 53.417969 C 52.550781 34.5625 70.582031 19.863281 82.847656 11.105469 C 84.679688 9.800781 86.417969 8.554688 88.265625 7.265625 C 89.0625 6.710938 93.5625 2.832031 93.066406 5.066406 C 92.695312 6.730469 86.425781 14.144531 85.058594 15.738281 C 81.140625 20.300781 70.917969 31.25 70.917969 38.753906 Z M 92.703125 2.453125 C 92.703125 1.578125 93.679688 0.601562 94.554688 0.601562 C 95.496094 0.601562 96.40625 1.265625 96.40625 2.167969 L 96.40625 2.878906 C 96.40625 3.421875 95.476562 4.160156 94.839844 4.160156 L 94.269531 4.160156 C 93.4375 4.160156 92.703125 3.425781 92.703125 2.59375 Z M 53.542969 42.597656 C 52.484375 41.820312 51.691406 36.007812 51.691406 33.769531 L 51.691406 31.777344 C 51.691406 24.648438 53.378906 18.304688 54.382812 12.117188 C 54.792969 9.582031 54.417969 9.632812 56.0625 8.242188 C 56.859375 7.566406 58.097656 5.679688 57.011719 4.402344 C 55.488281 2.617188 50.722656 5.355469 53.257812 9.144531 C 47.996094 17.699219 41.796875 34.890625 42.722656 45.160156 C 42.527344 45.089844 30.792969 32.09375 29.449219 30.667969 C 24.289062 25.195312 21.113281 21.824219 14.101562 18.113281 C 14.859375 14.847656 11.214844 13.613281 9.707031 15.582031 C 7.648438 18.277344 10.132812 19.640625 13.105469 19.394531 L 13.792969 19.019531 L 39.519531 66.355469 C 33.796875 66.371094 22.304688 63.210938 14.820312 60.8125 C 12.871094 60.214844 10.964844 59.640625 8.914062 59.03125 C 7.824219 58.707031 6.789062 58.667969 5.742188 58.355469 C 4.132812 57.878906 4.976562 57.582031 3.894531 56.355469 C 2.347656 54.605469 -0.535156 55.703125 0.0898438 58.417969 C 0.589844 60.59375 4.035156 61.789062 4.558594 59.824219 C 5.523438 60.082031 21.789062 70.828125 25.171875 72.671875 C 28.730469 74.605469 32.910156 76.308594 36.75 77.890625 C 40.164062 79.300781 46.472656 80.832031 49.273438 82.171875 C 48.832031 83.386719 40.398438 88.503906 38.691406 89.53125 C 34.359375 92.136719 31.503906 93.507812 25.90625 94.832031 C 24.359375 95.199219 11.289062 97.730469 11.042969 97.683594 C 10.726562 97.625 4.996094 94.84375 6.210938 99.550781 C 6.882812 102.171875 11.394531 102.074219 11.398438 99.199219 L 24.351562 99.96875 L 29.050781 99.96875 C 35.800781 99.96875 41.367188 98.757812 46.785156 97.339844 C 49.5 96.628906 61.742188 92.476562 62.371094 92.421875 C 60.660156 99.769531 57.421875 105.816406 52.800781 110.328125 C 50.351562 112.71875 48.128906 114.492188 45.511719 116.707031 C 42.613281 119.160156 43.4375 117.082031 40.605469 118.347656 C 38.183594 119.429688 38.808594 122.03125 40.730469 122.03125 L 42.011719 122.03125 C 45.429688 122.03125 43.660156 119.648438 46.558594 118.347656 C 48.476562 117.484375 50.941406 116.140625 52.746094 115.113281 C 56.777344 112.804688 59.820312 110.726562 63.128906 107.699219 C 66.300781 104.804688 68.785156 101.5625 71.34375 98.117188 C 73.382812 95.371094 76.632812 89.238281 78.320312 87.296875 C 78.757812 89.167969 82.777344 95.5 83.90625 98.082031 C 85.492188 101.703125 86.863281 106.355469 86.863281 111.5 L 86.863281 114.34375 C 86.863281 117.449219 85.550781 127.503906 84.242188 128.949219 C 82.933594 130.394531 81.144531 133.777344 84.730469 133.832031 C 87.851562 133.882812 88.179688 129.332031 86.4375 128.867188 C 86.597656 128.273438 89.507812 123.667969 90.175781 122.210938 C 91.277344 119.800781 92.171875 117.265625 92.835938 114.476562 C 93.945312 109.804688 95.125 101.40625 95.125 95.839844 L 95.195312 87.714844 L 94.128906 79.042969 C 100.753906 80.585938 106.902344 88.9375 109.347656 95 C 110.101562 96.871094 110.726562 98.875 111.359375 100.84375 C 112.410156 104.125 109.941406 103.425781 110.757812 106.953125 C 111.382812 109.652344 114.1875 109.03125 114.699219 106.410156 C 115.34375 103.101562 112.980469 104.035156 113.042969 100.417969 C 113.234375 89.402344 109.84375 83.328125 105.683594 76.597656 C 103.691406 73.378906 101.492188 70.332031 99.101562 67.523438 C 96.820312 64.519531 93.734375 61.769531 91.136719 59.824219 C 92.140625 58.453125 95.65625 56.550781 100.960938 56.550781 L 104.09375 56.550781 C 108.84375 56.550781 115.273438 58.789062 118.695312 60.316406 C 120.894531 61.296875 130.144531 66.699219 130.582031 66.800781 C 130.167969 71.757812 134.957031 72.394531 135.410156 69.589844 C 135.707031 67.761719 134.511719 66.539062 133.285156 66.230469 C 130.15625 65.453125 131.839844 66.414062 129.601562 64.359375 C 125.707031 60.789062 121.5 57.566406 116.921875 54.6875 C 108.945312 49.667969 96.105469 43.878906 83.160156 43.878906 C 83.800781 41.492188 90.484375 37.796875 93.101562 36.734375 C 96.96875 35.164062 102.300781 34.199219 107.796875 34.199219 L 108.082031 34.164062 L 112.210938 34.339844 C 112.621094 35.878906 116.304688 37.570312 117.847656 36.105469 C 119.675781 34.371094 116.441406 32.117188 114.109375 32.378906 C 112.03125 32.613281 113.089844 33.523438 111.03125 33.144531 C 109.703125 32.898438 108.878906 32.632812 107.410156 32.449219 C 104.96875 32.140625 102.382812 31.777344 99.539062 31.777344 L 97.402344 31.777344 C 87.28125 31.777344 78.410156 35.242188 71.769531 38.753906 C 71.769531 31.039062 82.035156 20.144531 86.074219 15.472656 C 87.1875 14.1875 93.984375 5.101562 94.355469 4.960938 C 98.09375 3.5625 97.964844 0.648438 95.316406 0.0820312 C 93.679688 -0.269531 92.617188 0.523438 92.234375 1.578125 C 91.390625 3.894531 93.320312 3.082031 91.035156 4.617188 C 83.765625 9.5 76.042969 15.203125 69.582031 20.910156 C 64.929688 25.015625 55.070312 36.039062 53.542969 42.597656 Z M 53.542969 42.597656 "/>
<path fill-rule="evenodd" fill="rgb(54.117647%, 0.392157%, 43.137255%)" fill-opacity="1" d="M 54.164062 9.132812 C 52.765625 9.269531 47.679688 22.171875 46.878906 24.40625 C 45.179688 29.144531 43.148438 36.894531 43.148438 43.171875 L 43.148438 45.589844 C 43.148438 46.386719 49.457031 51.992188 50.695312 52.28125 C 50.746094 50.070312 52.964844 44.773438 52.863281 43.660156 C 52.660156 41.40625 51.121094 38.875 51.121094 34.628906 L 50.746094 30.726562 Z M 54.164062 9.132812 "/>
<path fill-rule="evenodd" fill="rgb(6.27451%, 4.705882%, 5.882353%)" fill-opacity="1" d="M 1.425781 56.976562 C 1.425781 57.1875 1.601562 57.1875 1.703125 57.257812 L 1.585938 57.667969 L 2.003906 57.988281 L 2.296875 57.8125 L 2.707031 58.117188 C 2.785156 58.003906 2.992188 57.765625 2.992188 57.691406 C 2.992188 57.664062 2.75 57.042969 2.652344 56.890625 C 2.425781 56.550781 2.175781 56.773438 1.710938 56.550781 C 1.628906 56.664062 1.425781 56.902344 1.425781 56.976562 Z M 1.425781 56.976562 "/>
<path fill-rule="evenodd" fill="rgb(96.078431%, 92.156863%, 13.72549%)" fill-opacity="1" d="M 1.585938 57.671875 L 1.703125 57.261719 C 1.601562 57.1875 1.425781 57.1875 1.425781 56.980469 C 1.425781 56.902344 1.632812 56.667969 1.710938 56.550781 C 2.175781 56.773438 2.425781 56.550781 2.652344 56.894531 C 2.75 57.042969 2.992188 57.664062 2.992188 57.691406 C 2.992188 57.765625 2.789062 58.003906 2.707031 58.117188 L 2.296875 57.8125 L 2.003906 57.988281 Z M 0.714844 58.117188 C 0.714844 58.992188 1.691406 59.96875 2.566406 59.96875 L 3.277344 59.96875 C 3.621094 59.96875 4.132812 59.457031 4.132812 59.113281 L 4.132812 58.117188 C 4.132812 57.316406 3.226562 56.269531 2.421875 56.269531 L 1.996094 56.269531 C 1.292969 56.269531 0.714844 56.84375 0.714844 57.550781 Z M 0.714844 58.117188 "/>
<path fill-rule="evenodd" fill="rgb(6.27451%, 4.705882%, 5.882353%)" fill-opacity="1" d="M 131.84375 67.652344 L 132.164062 67.664062 L 132.011719 68.21875 L 132.433594 68.511719 C 132.90625 68.285156 134.101562 68.875 132.996094 67.269531 L 132.023438 67.09375 Z M 131.84375 67.652344 "/>
<path fill-rule="evenodd" fill="rgb(94.509804%, 90.588235%, 14.901961%)" fill-opacity="1" d="M 132.429688 68.503906 L 132.011719 68.210938 L 132.164062 67.65625 L 131.84375 67.644531 L 132.023438 67.085938 L 132.996094 67.261719 C 134.101562 68.867188 132.90625 68.277344 132.429688 68.503906 Z M 131.148438 67.9375 C 131.148438 69.117188 132.101562 70.5 133.144531 70.5 L 133.429688 70.5 C 134.203125 70.5 134.851562 69.84375 134.851562 69.074219 L 134.851562 68.933594 C 134.851562 68.019531 133.824219 66.796875 132.859375 66.796875 L 132.148438 66.796875 C 131.675781 66.796875 131.148438 67.460938 131.148438 67.9375 Z M 131.148438 67.9375 "/>
<path fill-rule="evenodd" fill="rgb(54.117647%, 0.392157%, 43.137255%)" fill-opacity="1" d="M 90.5625 60.113281 C 87.601562 61.679688 87.054688 62.222656 88.574219 64.660156 C 89.683594 66.445312 90.648438 68.460938 91.511719 70.558594 C 92.4375 72.808594 92.847656 75.171875 93.640625 77.253906 C 94.242188 78.824219 97.699219 79.765625 99.054688 80.667969 C 108.78125 87.144531 112.050781 102.210938 112.492188 102.535156 L 112.667969 100.121094 L 112.636719 98.691406 C 112.636719 85.070312 98.832031 64.488281 90.5625 60.113281 Z M 90.5625 60.113281 "/>
<path fill-rule="evenodd" fill="rgb(54.117647%, 0.392157%, 43.137255%)" fill-opacity="1" d="M 17.9375 62.535156 C 15.757812 61.839844 6.785156 58.828125 4.84375 58.828125 L 4.84375 59.253906 C 5.972656 59.554688 14.214844 65.492188 15.984375 66.621094 C 19.847656 69.085938 23.417969 71.191406 27.671875 73.300781 C 31.773438 75.332031 36.089844 77.128906 40.507812 78.832031 C 42.863281 79.742188 44.945312 80.390625 47.457031 81.144531 C 50.730469 82.128906 50.988281 81.011719 52.6875 78.472656 C 49.941406 77.019531 45.609375 72.957031 43.582031 70.636719 C 41.914062 68.726562 41.800781 67.386719 38.800781 67.015625 C 36.539062 66.734375 33.835938 66.234375 31.582031 65.835938 C 26.734375 64.976562 22.214844 63.902344 17.9375 62.535156 Z M 17.9375 62.535156 "/>
<path fill-rule="evenodd" fill="rgb(6.27451%, 4.705882%, 5.882353%)" fill-opacity="1" d="M 7.5 98.230469 L 7.851562 98.269531 L 7.691406 98.832031 C 7.859375 98.875 8.0625 98.976562 8.117188 98.945312 L 8.847656 98.996094 L 9.265625 98.683594 L 8.625 97.644531 L 8.546875 97.765625 L 7.835938 97.695312 Z M 7.5 98.230469 "/>
<path fill-rule="evenodd" fill="rgb(0%, 0%, 41.176471%)" fill-opacity="1" d="M 70.914062 38.757812 C 70.914062 31.253906 81.136719 20.304688 85.054688 15.738281 C 86.421875 14.148438 92.691406 6.734375 93.0625 5.066406 C 93.558594 2.835938 89.058594 6.714844 88.261719 7.269531 C 86.414062 8.558594 84.675781 9.800781 82.84375 11.109375 C 70.578125 19.867188 52.546875 34.566406 50.980469 53.417969 C 47.492188 52.488281 32.855469 35.511719 29.5625 31.839844 C 26.347656 28.253906 22.4375 24.1875 18.480469 21.421875 C 17.339844 20.621094 11.277344 16.398438 14.8125 20.519531 C 16.394531 22.363281 17.855469 24.738281 19.097656 26.925781 C 24.191406 35.910156 28.886719 45.976562 33.800781 55.21875 C 36.285156 59.886719 39.011719 64.355469 42.195312 68.320312 C 43.976562 70.539062 50.933594 77.726562 53.542969 78.332031 C 53.25 81.839844 39.476562 90.164062 35.980469 91.953125 C 28.753906 95.652344 19.984375 96.371094 11.25 98.40625 L 11.25 98.691406 L 27.332031 99.660156 L 28.195312 99.542969 C 38.070312 99.542969 48.300781 96.679688 55.953125 94.265625 C 60.105469 92.957031 64 91.308594 67.476562 89.273438 C 71.476562 86.933594 73.640625 84.257812 76.75 82.175781 C 78.628906 90.238281 87.429688 97.332031 87.429688 109.507812 L 87.429688 114.492188 L 87.675781 114.53125 L 85.40625 128.601562 C 87.582031 128.53125 91.742188 116.9375 92.457031 113.820312 C 93.632812 108.722656 94.695312 100.351562 94.695312 94.132812 L 94.695312 89.152344 C 94.695312 77.835938 90.980469 69.035156 86.433594 62.246094 C 91.488281 58.863281 93.277344 55.839844 102.238281 55.839844 C 108.296875 55.839844 113.941406 57.707031 118.195312 59.53125 C 120.917969 60.699219 130.042969 66.15625 130.863281 66.375 C 128.230469 62.441406 115.496094 54.210938 110.589844 51.621094 C 103.804688 48.042969 93.128906 44.308594 82.875 44.308594 L 81.308594 44.308594 L 72.46875 45.210938 C 72.144531 44.671875 70.914062 42.554688 70.914062 41.746094 Z M 70.914062 38.757812 "/>
<path fill-rule="evenodd" fill="rgb(96.078431%, 92.156863%, 13.72549%)" fill-opacity="1" d="M 8.117188 98.949219 C 8.0625 98.980469 7.859375 98.878906 7.691406 98.835938 L 7.851562 98.273438 L 7.5 98.234375 L 7.835938 97.699219 L 8.546875 97.769531 L 8.625 97.648438 L 9.265625 98.6875 L 8.847656 99 Z M 6.835938 99.121094 C 6.835938 100.074219 7.890625 100.828125 8.832031 100.828125 C 9.757812 100.828125 10.679688 100.210938 10.679688 99.261719 C 10.679688 98.335938 9.738281 97.410156 8.832031 97.410156 L 8.117188 97.410156 C 7.414062 97.410156 6.835938 97.988281 6.835938 98.691406 Z M 6.835938 99.121094 "/>
<path fill-rule="evenodd" fill="rgb(6.27451%, 4.705882%, 5.882353%)" fill-opacity="1" d="M 111.929688 104.238281 L 111.921875 104.957031 L 112.214844 105.519531 C 112.710938 105.292969 113.066406 105.777344 113.066406 105.09375 L 113.066406 104.382812 C 113.066406 103.867188 112.777344 103.96875 112.496094 104.097656 L 112.425781 103.742188 Z M 111.929688 104.238281 "/>
<path fill-rule="evenodd" fill="rgb(94.509804%, 90.588235%, 14.901961%)" fill-opacity="1" d="M 113.0625 105.09375 C 113.0625 105.777344 112.703125 105.289062 112.207031 105.519531 L 111.914062 104.953125 L 111.925781 104.238281 L 112.421875 103.738281 L 112.492188 104.097656 C 112.773438 103.964844 113.0625 103.867188 113.0625 104.378906 Z M 112.492188 107.941406 C 113.339844 107.941406 114.203125 106.671875 114.203125 106.089844 L 114.203125 105.804688 C 114.203125 104.875 113.6875 103.382812 112.921875 103.382812 L 112.492188 103.382812 C 111.941406 103.382812 111.210938 104.636719 111.210938 105.234375 L 111.210938 106.230469 C 111.210938 106.882812 111.878906 107.941406 112.492188 107.941406 Z M 112.492188 107.941406 "/>
<path fill-rule="evenodd" fill="rgb(54.117647%, 0.392157%, 43.137255%)" fill-opacity="1" d="M 44.570312 118.476562 C 49.472656 118.070312 62.5 107.882812 65.597656 104.480469 C 68.375 101.433594 70.84375 98.03125 73.226562 94.597656 C 74.457031 92.824219 75.523438 91.15625 76.601562 89.285156 C 79.039062 85.058594 77.308594 86.917969 76.46875 83.316406 C 76.464844 83.316406 68.273438 89.378906 66.628906 90.277344 C 63.367188 92.066406 63.722656 90.769531 62.53125 94.578125 C 61.886719 96.640625 61.125 98.789062 60.320312 100.769531 C 57.25 108.34375 44.632812 118.25 44.570312 118.480469 Z M 44.570312 118.476562 "/>
<path fill-rule="evenodd" fill="rgb(6.27451%, 4.705882%, 5.882353%)" fill-opacity="1" d="M 41.4375 119.902344 C 41.984375 119.902344 41.492188 119.945312 41.867188 119.761719 C 41.867188 119.761719 42.132812 119.902344 42.152344 119.902344 C 42.390625 119.902344 42.683594 119.710938 42.863281 119.617188 C 42.859375 119.613281 42.71875 119.351562 42.71875 119.332031 C 42.71875 119.011719 42.664062 119.398438 42.832031 119.097656 L 42.4375 118.761719 C 41.980469 118.984375 41.492188 118.804688 41.261719 119.019531 C 41.191406 119.082031 41.066406 119.902344 41.4375 119.902344 Z M 41.4375 119.902344 "/>
<path fill-rule="evenodd" fill="rgb(94.509804%, 90.588235%, 14.901961%)" fill-opacity="1" d="M 41.4375 119.902344 C 41.066406 119.902344 41.191406 119.082031 41.261719 119.019531 C 41.492188 118.804688 41.980469 118.984375 42.4375 118.761719 L 42.832031 119.097656 C 42.664062 119.398438 42.71875 119.011719 42.71875 119.332031 C 42.71875 119.351562 42.859375 119.613281 42.863281 119.617188 C 42.683594 119.710938 42.390625 119.902344 42.152344 119.902344 C 42.132812 119.902344 41.867188 119.761719 41.867188 119.761719 C 41.492188 119.945312 41.984375 119.902344 41.4375 119.902344 Z M 42.007812 121.46875 C 42.929688 121.46875 44.285156 120.652344 44.285156 119.902344 L 44.285156 119.476562 C 44.285156 118.855469 43.214844 118.480469 42.578125 118.480469 C 41.394531 118.480469 39.871094 119.039062 39.871094 120.1875 L 39.871094 120.472656 C 39.871094 120.925781 40.597656 121.46875 41.15625 121.46875 Z M 42.007812 121.46875 "/>
<path fill-rule="evenodd" fill="rgb(6.27451%, 4.705882%, 5.882353%)" fill-opacity="1" d="M 84.203125 130.320312 C 84.160156 130.296875 84.300781 130.558594 84.300781 130.578125 C 84.300781 131.121094 84.34375 130.628906 84.160156 131.003906 C 84.273438 131.085938 84.511719 131.289062 84.585938 131.289062 C 84.792969 131.289062 84.796875 131.113281 84.867188 131.011719 L 85.277344 131.128906 L 85.582031 130.71875 C 85.507812 130.367188 85.636719 129.867188 85.296875 129.914062 L 84.453125 129.871094 Z M 84.203125 130.320312 "/>
<path fill-rule="evenodd" fill="rgb(94.509804%, 90.588235%, 14.901961%)" fill-opacity="1" d="M 84.457031 129.871094 L 85.300781 129.910156 C 85.636719 129.863281 85.507812 130.363281 85.585938 130.71875 L 85.277344 131.128906 L 84.871094 131.011719 C 84.796875 131.113281 84.796875 131.285156 84.585938 131.285156 C 84.511719 131.285156 84.273438 131.082031 84.160156 131.003906 C 84.347656 130.628906 84.300781 131.121094 84.300781 130.574219 C 84.300781 130.554688 84.164062 130.292969 84.207031 130.316406 Z M 84.730469 133.136719 C 85.910156 133.136719 86.867188 132.207031 86.867188 131.144531 C 86.867188 130.144531 86.425781 129.292969 85.441406 129.292969 C 84.398438 129.292969 83.304688 130.4375 83.304688 131.429688 L 83.304688 131.714844 C 83.304688 132.300781 84.003906 133.136719 84.445312 133.136719 Z M 84.730469 133.136719 "/>
<path fill-rule="evenodd" fill="rgb(93.72549%, 60.392157%, 28.235294%)" fill-opacity="1" stroke-width="0.7" stroke-linecap="butt" stroke-linejoin="miter" stroke="rgb(0%, 0%, 0%)" stroke-opacity="1" stroke-miterlimit="4" d="M 78.990935 108.479395 L 82.257939 118.124076 C 83.96068 127.281393 86.776355 132.873256 90.345955 136.018038 C 93.966842 141.979272 98.080088 147.37619 102.947258 151.885591 C 108.055478 158.098202 114.61513 157.713441 121.149139 150.644095 C 129.596166 141.507298 133.770957 125.685917 135.62243 108.171586 C 137.766241 87.851063 115.963988 75.625916 106.680977 93.391624 C 101.162458 103.959733 99.511005 102.200091 91.7461 94.787025 C 84.124799 87.517603 73.949388 91.888491 78.990935 108.479395 Z M 84.350463 113.583894 C 93.274463 113.953264 99.546906 115.338405 100.598297 118.714043 C 93.982228 122.084552 88.797077 119.524607 84.350463 113.583894 Z M 105.485982 140.029815 C 106.604046 140.665954 107.388742 140.681344 108.204211 140.029815 C 109.712059 138.8191 110.830124 138.926833 113.245758 138.049577 C 117.076923 136.669567 118.769406 133.073332 121.533794 130.58008 C 116.189652 137.78281 111.671236 150.721047 103.449874 142.60515 C 101.393251 140.568481 101.336835 139.942603 95.397759 135.017659 C 95.15158 134.817583 94.900272 134.607247 94.633578 134.391781 C 97.372322 136.023168 99.798214 137.967495 102.844683 139.296204 C 103.716568 139.650184 104.244828 139.326985 105.485982 140.029815 Z M 108.860689 117.944521 C 107.342584 111.778081 113.045737 109.218136 124.154578 109.366911 C 119.584875 113.481291 114.77925 117.046745 108.860689 117.944521 Z M 108.860689 117.944521 " transform="matrix(0.76164, 0, 0, 0.76143, -16.690001, -25.743999)"/>
<path fill-rule="evenodd" fill="rgb(93.72549%, 60.392157%, 28.235294%)" fill-opacity="1" stroke-width="0.7" stroke-linecap="butt" stroke-linejoin="miter" stroke="rgb(12.156863%, 10.196078%, 9.019608%)" stroke-opacity="1" stroke-miterlimit="4" d="M 100.711129 118.529358 C 99.659738 115.153719 93.382166 113.773709 84.463296 113.399208 C 88.90478 119.345052 94.089932 121.899866 100.711129 118.529358 Z M 124.26741 109.182225 C 113.153441 109.033451 107.455416 111.593396 108.973522 117.759835 C 114.892082 116.862059 119.697707 113.296605 124.26741 109.182225 Z M 88.294461 106.996781 C 91.089622 109.418212 93.889911 111.342018 96.690201 111.896074 C 102.383097 113.732668 102.752366 117.677753 102.362582 121.925517 L 102.362582 131.95496 C 102.018957 135.710229 104.35766 136.269416 105.747547 134.632898 C 106.496342 133.750512 108.050349 132.693701 109.373563 132.550057 C 111.409671 132.334591 113.025222 132.421803 111.927673 129.035904 M 105.93731 129.620742 C 105.911667 125.060038 105.886023 120.499335 105.860379 115.938632 M 107.337455 112.675857 C 109.127384 109.00267 114.363822 106.796706 121.87742 105.755285 M 98.321138 114.461149 C 93.428325 111.783211 88.29959 110.695619 82.929804 111.198374 M 88.21753 103.734006 C 98.890428 113.660846 103.675538 112.10128 107.727239 102.410428 C 113.050866 89.687656 123.221148 88.836052 131.750235 101.635775 M 121.641498 130.395394 C 116.302484 137.598124 111.77894 150.541492 103.562706 142.420465 C 101.418894 140.301713 101.449667 139.711746 94.74641 134.207095 C 97.480026 135.843613 99.905918 137.78794 102.957515 139.111518 C 103.8294 139.465499 104.35766 139.147429 105.593685 139.85026 C 106.711749 140.481268 107.496446 140.501789 108.311915 139.85026 C 109.824892 138.639545 110.942956 138.742148 113.35859 137.870022 C 117.189755 136.484882 118.882238 132.888647 121.641498 130.395394 Z M 95.505463 134.832974 C 97.946741 136.669567 100.372632 138.526681 102.916485 140.19911 C 103.757598 140.758296 104.757701 141.296962 105.983469 141.702244 C 107.260524 142.143437 108.2914 142.394814 109.399207 141.399565 C 110.096715 140.773687 110.583944 140.255542 111.727652 139.809219 C 116.446089 138.454859 118.338592 133.535046 121.641498 130.395394 M 79.098639 108.294709 C 74.057092 91.703805 84.232503 87.332918 91.853803 94.60747 C 99.623837 102.015406 101.270161 103.775047 106.793809 93.206939 C 116.071691 75.441231 137.873945 87.666377 135.730133 107.9869 C 133.883789 125.501231 129.70387 141.322613 121.261971 150.45941 C 114.727963 157.528756 108.163181 157.913517 103.06009 151.700906 C 98.19292 147.191504 94.079674 141.799717 90.453658 135.833353 C 86.884059 132.688571 84.068383 127.101838 82.365643 117.944521 Z M 106.250163 138.403558 C 106.357867 137.890543 106.173232 133.863375 107.881101 138.300955 M 109.527425 153.706794 C 106.727135 151.17763 111.794326 149.44877 111.045531 153.260471 M 128.262695 123.233705 C 128.416557 130.959711 125.718842 140.137548 121.728686 145.790973 M 115.969116 127.435298 C 122.610829 123.854453 125.718842 124.839442 125.303415 130.390264 M 86.801999 127.902141 C 88.45858 131.785665 93.361651 132.329461 96.992796 126.501611 M 81.139875 107.386673 C 80.232089 92.955562 84.683831 90.611083 93.033412 102.256523 C 97.433867 108.387052 101.388122 109.495164 105.470595 100.548183 C 112.738013 84.619069 124.34947 85.742571 131.883582 97.01864 M 106.557887 110.110782 C 113.507324 97.69582 119.743866 92.90426 124.826442 100.389149 " transform="matrix(0.76164, 0, 0, 0.76143, -16.690001, -25.743999)"/>
<path fill-rule="evenodd" fill="rgb(100%, 100%, 100%)" fill-opacity="1" stroke-width="0.7" stroke-linecap="butt" stroke-linejoin="miter" stroke="rgb(0%, 0%, 0%)" stroke-opacity="1" stroke-miterlimit="4" d="M 113.35859 137.870022 C 110.942956 138.742148 109.824892 138.639545 108.311915 139.85026 C 107.501575 140.501789 106.711749 140.481268 105.593685 139.85026 C 104.35766 139.147429 103.8294 139.465499 102.957515 139.111518 C 99.911046 137.78794 97.485155 135.843613 94.74641 134.207095 C 95.007975 134.422562 95.264412 134.632898 95.505463 134.838104 C 95.510591 134.838104 95.510591 134.838104 95.51572 134.843234 C 95.756771 135.022789 95.997821 135.207475 96.238872 135.38703 C 98.433971 137.038938 100.629069 138.695976 102.916485 140.19911 C 103.757598 140.758296 104.757701 141.296962 105.983469 141.702244 C 107.260524 142.143437 108.296528 142.394814 109.399207 141.404695 C 110.101843 140.773687 110.583944 140.255542 111.727652 139.809219 C 115.9127 138.613894 117.871877 134.607247 120.564463 131.529157 C 120.913217 131.134136 121.2671 130.754505 121.641498 130.400524 C 118.882238 132.888647 117.189755 136.484882 113.35859 137.870022 Z M 113.35859 137.870022 " transform="matrix(0.76164, 0, 0, 0.76143, -16.690001, -25.743999)"/>
<path fill-rule="evenodd" fill="rgb(3.921569%, 4.313725%, 4.705882%)" fill-opacity="1" stroke-width="0.7" stroke-linecap="butt" stroke-linejoin="miter" stroke="rgb(0%, 0%, 0%)" stroke-opacity="1" stroke-miterlimit="4" d="M 108.968393 117.759835 C 114.804894 116.87232 119.559231 113.399208 124.072518 109.35665 C 116.343514 109.264308 111.25068 110.485283 109.399207 113.327386 C 108.691441 114.522711 108.537579 115.995064 108.968393 117.759835 Z M 108.968393 117.759835 " transform="matrix(0.76164, 0, 0, 0.76143, -16.690001, -25.743999)"/>
<path fill-rule="evenodd" fill="rgb(3.921569%, 4.313725%, 4.705882%)" fill-opacity="1" stroke-width="0.7" stroke-linecap="butt" stroke-linejoin="miter" stroke="rgb(0%, 0%, 0%)" stroke-opacity="1" stroke-miterlimit="4" d="M 100.567524 118.60118 C 99.434074 115.328145 93.300107 113.968655 84.6069 113.583894 C 88.98684 119.350182 94.089932 121.828044 100.567524 118.60118 Z M 100.567524 118.60118 " transform="matrix(0.76164, 0, 0, 0.76143, -16.690001, -25.743999)"/>
</svg>
