<?xml version="1.0" encoding="UTF-8"?>
<svg xmlns="http://www.w3.org/2000/svg" width="511.95" height="505.84" clip-rule="evenodd" fill-rule="evenodd" image-rendering="optimizeQuality" shape-rendering="geometricPrecision" text-rendering="geometricPrecision" version="1.1" viewBox="0 0 135.45 133.84" xml:space="preserve">
  
  <defs>
    <style type="text/css">
      <![CDATA[
        .str1 {stroke:#1F1A17;stroke-width:0.7}
        .str0 {stroke:black;stroke-width:0.7}
        .fil7 {fill:#0A0B0C}
        .fil5 {fill:#EF9A48}
        .fil6 {fill:white}
        .fil4 {fill:#000069}
        .fil1 {fill:#100C0F}
        .fil3 {fill:#8A016E}
        .fil0 {fill:#F1E726}
        .fil2 {fill:#F5EB23}
       ]]>
    </style>
  </defs>
  <g transform="matrix(.76164 0 0 .76143 -16.69 -25.744)">
    
    
      <path class="fil0" d="m146.4 36.088 0.4317 0.0206-0.2195 0.7787-0.9252-0.2251-7e-3 0.3969-0.6985-0.2179-0.2187-0.9229 0.1874-0.6056 0.6998 0.1903 0.3778-0.2766 0.5841 0.3102zm-2.7696 0.9481v0.187c0 1.0924 0.9643 2.0565 2.0566 2.0565h0.7478c0.8347 0 2.0566-0.9688 2.0566-1.6826v-0.9348c0-1.1853-1.1913-2.0565-2.4305-2.0565-1.1463 0-2.4305 1.284-2.4305 2.4304z" fill="#f1e726"/>
      <polygon class="fil1" points="144.98 36.841 145.68 37.059 145.68 36.662 146.61 36.887 146.83 36.109 146.4 36.088 146.61 35.537 146.02 35.226 145.65 35.503 144.95 35.313 144.76 35.918" fill="#100c0f"/>
      <path class="fil0" d="m94.83 41.523-0.3761 0.6738-1.2785 0.0646-0.2525-0.4019 0.4012-0.3327-0.2168-0.6048 0.6009-0.5208c0.8608 0.3981 0.5066-0.3257 0.977 0.1448 0.4133 0.4133-0.2777 0.3273 0.1448 0.977zm-3.1783 1.3087v0.5608c0 0.6833 0.5159 1.4957 1.1217 1.4957h0.9348c0.8822 0 2.6174-1.8457 2.6174-2.9913v-0.9348c0-0.4502-0.6716-1.1218-1.1217-1.1218h-0.7478c-1.2853 0-2.8044 1.7628-2.8044 2.9914z" fill="#f1e726"/>
      <path class="fil1" d="m94.83 41.523c-0.4225-0.6497 0.2685-0.5637-0.1448-0.977-0.4704-0.4705-0.1162 0.2533-0.977-0.1448l-0.6009 0.5208 0.2168 0.6048-0.4012 0.3327 0.2525 0.4019 1.2785-0.0646z" fill="#100c0f"/>
      <path class="fil2" d="m37.444 55.362 0.4019 0.0056-0.2385 0.9601-0.5701-0.249-0.4879 0.3212-0.6461-0.3074 0.1844-0.5101-0.2766-0.3778 0.3273-0.6292 0.5102 0.1844 0.3609-0.2566 0.6461 0.3074zm-2.6277 1.1178c0 1.263 1.0988 2.2435 2.4305 2.2435h0.187c1.1231 0 2.2435-1.1204 2.2435-2.2435v-0.187c0-1.0074-1.0071-2.2435-2.0566-2.2435h-0.7478c-1.1853 0-2.0566 1.1913-2.0566 2.4305z" fill="#f5eb23"/>
      <polygon class="fil1" points="35.811 55.205 36.087 55.583 35.903 56.093 36.549 56.4 37.037 56.079 37.607 56.328 37.846 55.368 37.444 55.362 37.655 54.811 37.009 54.503 36.648 54.76 36.138 54.576" fill="#100c0f"/>
      <path class="fil1" d="m171.68 77.641-0.0134 0.3391h0.2137l-0.0267 0.5609c0.1505 0.1045 0.4616 0.3739 0.5609 0.3739 0.7148 0 0.068 0.0573 0.5834-0.2141l0.5343 0.3908 0.652-0.2223-0.841-1.2216-1.1118-0.2183z" fill="#100c0f"/>
      <path class="fil3" d="m115.96 85.459 1.5825 7 0.2871-0.0825c2.1895 0 4.958-0.5603 7.3308-0.7084 4.1978-0.2623 3.8209 0.4124 6.0036-2.0357 2.7188-3.049 5.4878-4.9027 9.283-6.7956 8.2908-4.135 15.213-4.6692 27.488-4.6692l0.0383-0.2726-12.724-1.796-0.0281 0.199h-6.5436c-6.5824 0-12.76 1.4582-18.016 2.9238-5.01 1.3971-11.981 5.6032-14.702 6.2372z" fill="#8a016e"/>
      <path class="fil0" d="m171.86 78.541 0.0267-0.5609h-0.2137l0.0134-0.3391 0.5514-0.2116 1.1118 0.2183 0.841 1.2216-0.652 0.2223-0.5343-0.3908c-0.5154 0.2714 0.1314 0.2141-0.5834 0.2141-0.0993 0-0.4104-0.2694-0.5609-0.3739zm-1.6826 0c0 1.3878 2.5053 2.6174 3.9261 2.6174 1.0211 0 2.0566-0.4346 2.0566-1.4957 0-1.6224-2.1024-2.6174-3.7392-2.6174-1.0398 0-2.2435 0.5062-2.2435 1.4957z" fill="#f1e726"/>
      <path class="fil1" d="m133.16 208.66h-0.3739c-0.5811 0-1.4957-1.1005-1.4957-1.8696v-0.374c0-1.3047 1.4352-2.8043 2.8044-2.8043 1.2943 0 1.8696 1.1183 1.8696 2.4304 0 1.3954-1.2536 2.6175-2.8044 2.6175zm-56.088-15.331h-1.1217c-0.7301 0-1.6827-0.7134-1.6827-1.3087v-0.3739c0-1.5083 1.9969-2.2435 3.5523-2.2435 0.8373 0 2.2435 0.4958 2.2435 1.3087v0.5608c0 0.9867-1.7811 2.0566-2.9914 2.0566zm92.545-17.761c-0.8053 0-1.6826-1.3888-1.6826-2.2435v-1.3088c0-0.7864 0.958-2.4304 1.6826-2.4304h0.5609c1.0056 0 1.6826 1.9567 1.6826 3.1783v0.3739c0 0.7671-1.1327 2.4305-2.2435 2.4305zm-138.72-11.592v-0.5609c0-0.9241 0.7586-1.6826 1.6826-1.6826h0.9348c1.1905 0 2.4305 1.2128 2.4305 2.4304 0 1.2479-1.2146 2.0566-2.4305 2.0566-1.2363 0-2.6174-0.9897-2.6174-2.2435zm49.544 25.427c0.0804-0.3016 16.646-13.311 20.678-23.258 1.0536-2.5994 2.054-5.4238 2.9004-8.1302 1.5639-5.0006 1.0994-3.2982 5.383-5.6475 2.1583-1.1836 12.914-9.1422 12.918-9.1434 1.102 4.73 3.3727 2.2878 0.1729 7.8379-1.416 2.456-2.8118 4.6484-4.428 6.9769-3.13 4.5097-6.3706 8.976-10.016 12.98-4.0669 4.4667-21.172 17.849-27.608 18.384zm113.67-66.371c0-0.6251 0.6905-1.4957 1.3087-1.4957h0.9348c1.2684 0 2.6174 1.6056 2.6174 2.8044v0.187c0 1.007-0.8532 1.8696-1.8696 1.8696h-0.3739c-1.3671 0-2.6174-1.8162-2.6174-3.3653zm-53.284-10.283c10.854 5.743 28.979 32.776 28.979 50.666l0.0439 1.8733-0.2308 3.1747c-0.5814-0.426-4.8727-20.214-17.644-28.722-1.7779-1.1845-6.3206-2.4192-7.108-4.4836-1.0423-2.7324-1.5808-5.837-2.7974-8.7941-1.1318-2.7514-2.398-5.4018-3.8558-7.7423-1.9952-3.2035-1.2752-3.9143 2.6131-5.9717zm-112.55-1.6826c2.5468 0 14.329 3.9598 17.189 4.872 5.619 1.7922 11.553 3.2046 17.916 4.3327 2.9582 0.5246 6.5078 1.1787 9.4816 1.5489 3.9384 0.4905 4.0829 2.2465 6.2751 4.7556 2.6625 3.0475 8.3508 8.3831 11.957 10.291-2.2353 3.338-2.5707 4.8049-6.8677 3.5115-3.3018-0.9938-6.0343-1.8451-9.1239-3.0376-5.8017-2.2393-11.468-4.5955-16.853-7.2644-5.5887-2.7698-10.276-5.5343-15.346-8.7721-2.3234-1.4837-13.148-9.2818-14.628-9.6769zm-5.4219-0.9348v-0.7478c0-0.9241 0.7586-1.6827 1.6827-1.6827h0.5609c1.056 0 2.2435 1.377 2.2435 2.4305v1.3087c0 0.4502-0.6716 1.1218-1.1218 1.1218h-0.9348c-1.1465 0-2.4305-1.284-2.4305-2.4305zm147.32-31.596c0-0.9895 1.2037-1.4957 2.2435-1.4957 1.6368 0 3.7392 0.995 3.7392 2.6174 0 1.0611-1.0355 1.4957-2.0566 1.4957-1.4208 0-3.9261-1.2296-3.9261-2.6174zm-54.218 6.9175c2.7209-0.634 9.6923-4.8401 14.702-6.2372 5.2559-1.4656 11.433-2.9238 18.016-2.9238h6.5436l0.0281-0.199 12.724 1.796-0.0383 0.2726c-12.274 0-19.197 0.5342-27.488 4.6692-3.7952 1.8929-6.5642 3.7466-9.283 6.7956-2.1827 2.4481-1.8058 1.7734-6.0036 2.0357-2.3728 0.1481-5.1413 0.7084-7.3308 0.7084l-0.2871 0.0825zm-81.14-28.979c0-1.2392 0.8713-2.4305 2.0566-2.4305h0.7478c1.0495 0 2.0566 1.2361 2.0566 2.2435v0.187c0 1.1231-1.1204 2.2435-2.2435 2.2435h-0.187c-1.3317 0-2.4305-0.9805-2.4305-2.2435zm53.724 17.683 0.4946 5.1262c0 5.5771 2.0195 8.8994 2.2866 11.86 0.1319 1.4624-2.7828 8.4181-2.8474 11.323-1.624-0.3784-9.9089-7.7403-9.9089-8.7871v-3.1783c0-8.2427 2.6689-18.419 4.8969-24.643 1.0508-2.9355 7.7323-19.878 9.5673-20.059zm3.1121-31.331c0-1.2286 1.5191-2.9914 2.8044-2.9914h0.7478c0.4501 0 1.1217 0.6716 1.1217 1.1218v0.9348c0 1.1456-1.7352 2.9913-2.6174 2.9913h-0.9348c-0.6058 0-1.1217-0.8124-1.1217-1.4957zm23.37 41.879v3.9262c0 1.0635 1.617 3.8433 2.0421 4.5499l11.606-1.1846h2.0566c13.465 0 27.48 4.9059 36.388 9.604 6.4453 3.3993 23.161 14.212 26.617 19.375-1.0767-0.2874-13.058-7.4543-16.628-8.9851-5.5867-2.3955-12.996-4.8498-20.951-4.8498-11.767 0-14.115 3.9686-20.752 8.4131 5.97 8.9152 10.844 20.475 10.844 35.335v6.5436c0 8.1649-1.3907 19.161-2.9342 25.858-0.9421 4.0884-6.4032 19.32-9.261 19.41l2.9817-18.48-0.3215-0.0518v-6.5436c0-15.992-11.556-25.311-14.022-35.896-4.083 2.7342-6.9252 6.2478-12.178 9.3218-4.5644 2.671-9.6794 4.8375-15.13 6.5568-10.049 3.1699-23.479 6.9305-36.444 6.9305l-1.1314 0.1524-21.117-1.2742v-0.3739c11.465-2.6711 22.98-3.6132 32.47-8.4739 4.5897-2.3506 22.673-13.28 23.057-17.887-3.4237-0.7975-12.556-10.233-14.896-13.148-4.1823-5.2085-7.7618-11.076-11.023-17.208-6.4541-12.135-12.617-25.361-19.306-37.156-1.6302-2.8745-3.5461-5.996-5.6231-8.4161-4.6433-5.4106 3.3172 0.1351 4.8166 1.1835 5.1955 3.6325 10.325 8.976 14.546 13.684 4.3256 4.8244 23.542 27.119 28.12 28.342 2.0604-24.761 25.734-44.064 41.84-55.566 2.4051-1.7176 4.6866-3.3533 7.1099-5.0425 1.0488-0.7312 6.9555-5.8239 6.3043-2.8929-0.4866 2.1901-8.7165 11.924-10.512 14.016-5.1431 5.9933-18.568 20.374-18.568 30.229zm28.605-47.675c0-1.1464 1.2842-2.4304 2.4305-2.4304 1.2392 0 2.4305 0.8712 2.4305 2.0565v0.9348c0 0.7138-1.2219 1.6826-2.0566 1.6826h-0.7478c-1.0923 0-2.0566-0.9641-2.0566-2.0565zm-51.414 52.723c-1.3901-1.0184-2.4304-8.6508-2.4304-11.591v-2.6175c0-9.3617 2.2158-17.694 3.5323-25.82 0.5393-3.3289 0.0459-3.2637 2.2033-5.0883 1.0499-0.8881 2.673-3.3688 1.2483-5.042-1.9995-2.3485-8.2576 1.2508-4.9274 6.2239-6.9124 11.236-15.051 33.816-13.835 47.301-0.2576-0.0933-15.663-17.161-17.426-19.031-6.7781-7.1896-10.943-11.618-20.153-16.491 0.9986-4.2863-3.7861-5.9104-5.7662-3.3206-2.7031 3.5353 0.5584 5.3278 4.4575 5.0033l0.9047-0.4915 33.779 62.169c-7.5156 0.0178-22.603-4.1336-32.429-7.2826-2.5612-0.782-5.0602-1.5401-7.7576-2.3382-1.4291-0.423-2.7878-0.4783-4.1619-0.8861-2.1126-0.6268-1.0075-1.0188-2.4264-2.6255-2.0303-2.2992-5.8161-0.86-4.9953 2.704 0.6586 2.8593 5.1803 4.4282 5.8692 1.8479 1.2667 0.3382 22.62 14.453 27.064 16.872 4.672 2.5435 10.16 4.779 15.202 6.8588 4.4785 1.8472 12.764 3.8583 16.439 5.6219-0.5765 1.5925-11.649 8.3168-13.892 9.6648-5.69 3.4189-9.4393 5.222-16.784 6.9598-2.0346 0.4814-19.194 3.8072-19.515 3.7471-0.4156-0.078-7.9404-3.7291-6.3476 2.4527 0.8857 3.4378 6.8079 3.3133 6.8128-0.4655l17.008 1.011h6.1696c8.8585 0 16.168-1.5913 23.283-3.4526 3.5659-0.9329 19.64-6.3874 20.466-6.4562-2.2475 9.6471-6.5004 17.589-12.568 23.515-3.2165 3.1419-6.1356 5.4706-9.5702 8.3797-3.8044 3.2221-2.7232 0.4913-6.4419 2.1523-3.1793 1.4201-2.3595 4.8403 0.1622 4.8403h1.6826c4.4892 0 2.1669-3.1314 5.9699-4.8399 2.5178-1.1311 5.7588-2.8966 8.1233-4.25 5.296-3.0313 9.2883-5.7598 13.637-9.733 4.1635-3.8043 7.4254-8.0615 10.784-12.586 2.6752-3.6041 6.9446-11.66 9.1607-14.209 0.5724 2.457 5.8497 10.771 7.3349 14.165 2.0811 4.756 3.8826 10.863 3.8826 17.618v3.7392c0 4.0761-1.7257 17.283-3.4431 19.179-1.7204 1.8993-4.07 6.3393 0.6398 6.415 4.1009 0.0659 4.5306-5.9132 2.2424-6.5241 0.2081-0.7792 4.0302-6.8248 4.9062-8.7419 1.4456-3.1634 2.6233-6.4918 3.4933-10.155 1.4582-6.1389 3.0051-17.165 3.0051-24.478l0.0935-10.668-1.4023-11.393c8.7021 2.0273 16.772 12.996 19.984 20.961 0.9893 2.4535 1.8126 5.0859 2.6413 7.6724 1.3806 4.3081-1.8617 3.3907-0.7885 8.0249 0.821 3.5455 4.5012 2.7304 5.173-0.7137 0.8474-4.3435-2.2543-3.1181-2.1724-7.8716 0.2493-14.467-4.2008-22.441-9.6636-31.28-2.6149-4.2314-5.5042-8.2331-8.6448-11.921-2.9929-3.9446-7.0462-7.5539-10.455-10.111 1.3194-1.8008 5.9339-4.3 12.9-4.3h4.1132c6.2373 0 14.677 2.9413 19.17 4.9472 2.8881 1.2894 15.033 8.3808 15.604 8.5138-0.5421 6.5149 5.7489 7.3479 6.342 3.6667 0.387-2.4021-1.1781-4.01-2.7924-4.4119-4.1039-1.0215-1.8936 0.241-4.835-2.4565-5.1131-4.6892-10.635-8.9252-16.646-12.707-10.476-6.5916-27.334-14.192-44.327-14.192 0.8367-3.1334 9.6137-7.9875 13.051-9.3845 5.0772-2.0636 12.077-3.3287 19.293-3.3287l0.3762-0.0452 5.4196 0.2321c0.5396 2.021 5.3762 4.2426 7.4014 2.3193 2.3993-2.2786-1.8458-5.2401-4.9107-4.8943-2.728 0.3076-1.337 1.4987-4.0398 1.0018-1.7437-0.3206-2.8239-0.6707-4.7511-0.9138-3.2099-0.405-6.6037-0.8783-10.339-0.8783h-2.8044c-13.285 0-24.935 4.5483-33.653 9.161 0-10.135 13.477-24.443 18.782-30.575 1.4616-1.6895 10.383-13.623 10.872-13.806 4.9081-1.836 4.7385-5.6618 1.2621-6.4083-2.1512-0.4619-3.5435 0.5787-4.0488 1.9666-1.1078 3.0423 1.4287 1.9722-1.5715 3.9887-9.5439 6.4148-19.684 13.905-28.168 21.397-6.1069 5.3935-19.052 19.869-21.059 28.485z" fill="#100c0f"/>
      <path class="fil3" d="m93.029 45.805c-1.835 0.1813-8.5165 17.124-9.5673 20.059-2.228 6.2237-4.8969 16.4-4.8969 24.643v3.1783c0 1.0468 8.2849 8.4087 9.9089 8.7871 0.0646-2.9048 2.9793-9.8605 2.8474-11.323-0.2671-2.9607-2.2866-6.283-2.2866-11.86l-0.4946-5.1262z" fill="#8a016e"/>
      <path class="fil1" d="m23.785 108.64c0 0.2734 0.2305 0.2743 0.3638 0.3701l-0.1543 0.5376 0.5483 0.417 0.3865-0.23 0.5384 0.401c0.1046-0.1506 0.3739-0.4616 0.3739-0.5609 0-0.0347-0.3162-0.8501-0.447-1.0486-0.2947-0.4471-0.6269-0.155-1.2356-0.447-0.1047 0.1504-0.374 0.4616-0.374 0.5608z" fill="#100c0f"/>
      <path class="fil2" d="m23.995 109.55 0.1543-0.5376c-0.1333-0.0958-0.3638-0.0967-0.3638-0.3701 0-0.0992 0.2693-0.4104 0.374-0.5608 0.6087 0.292 0.9409-1e-4 1.2356 0.447 0.1308 0.1985 0.447 1.0139 0.447 1.0486 0 0.0993-0.2693 0.4103-0.3739 0.5609l-0.5384-0.401-0.3865 0.23zm-1.1443 0.588c0 1.1465 1.284 2.4305 2.4305 2.4305h0.9348c0.4502 0 1.1218-0.6716 1.1218-1.1218v-1.3087c0-1.0535-1.1875-2.4305-2.2435-2.4305h-0.5609c-0.9241 0-1.6827 0.7586-1.6827 1.6827z" fill="#f5eb23"/>
      <path class="fil1" d="m195.02 122.66 0.4198 0.0145-0.202 0.7264 0.553 0.3881c0.621-0.298 2.1933 0.4761 0.74-1.635l-1.278-0.2273z" fill="#100c0f"/>
      <path class="fil0" d="m195.79 123.78-0.553-0.3881 0.202-0.7264-0.4198-0.0145 0.2328-0.7333 1.278 0.2273c1.4533 2.1111-0.119 1.337-0.74 1.635zm-1.6826-0.7478c0 1.5491 1.2503 3.3653 2.6174 3.3653h0.3739c1.0164 0 1.8696-0.8626 1.8696-1.8696v-0.187c0-1.1988-1.349-2.8044-2.6174-2.8044h-0.9348c-0.6182 0-1.3087 0.8706-1.3087 1.4957z" fill="#f1e726"/>
      <path class="fil3" d="m140.82 112.76c-3.8883 2.0574-4.6083 2.7682-2.6131 5.9717 1.4578 2.3405 2.724 4.9909 3.8558 7.7423 1.2166 2.9571 1.7551 6.0617 2.7974 8.7941 0.7874 2.0644 5.3301 3.2991 7.108 4.4836 12.771 8.5086 17.062 28.296 17.644 28.722l0.2308-3.1747-0.0439-1.8733c0-17.89-18.125-44.923-28.979-50.666z" fill="#8a016e"/>
      <path class="fil3" d="m45.462 115.94c-2.8598-0.9122-14.642-4.872-17.189-4.872v0.5609c1.4799 0.3951 12.304 8.1932 14.628 9.6769 5.0701 3.2378 9.757 6.0023 15.346 8.7721 5.3851 2.6689 11.052 5.0251 16.853 7.2644 3.0896 1.1925 5.8221 2.0438 9.1239 3.0376 4.297 1.2934 4.6324-0.1735 6.8677-3.5115-3.6062-1.9081-9.2945-7.2437-11.957-10.291-2.1922-2.5091-2.3367-4.2651-6.2751-4.7556-2.9738-0.3702-6.5234-1.0243-9.4816-1.5489-6.3621-1.1281-12.296-2.5405-17.916-4.3327z" fill="#8a016e"/>
      <path class="fil1" d="m31.76 162.82 0.4615 0.0478-0.2099 0.7405c0.2198 0.0583 0.4852 0.1917 0.5585 0.1476l0.9597 0.0665 0.5508-0.4087-0.8416-1.3661-0.1056 0.1585-0.9325-0.092z" fill="#100c0f"/>
      <path class="fil4" d="m115.02 84.711c0-9.8548 13.424-24.236 18.568-30.229 1.7956-2.0923 10.026-11.826 10.512-14.016 0.6512-2.931-5.2555 2.1617-6.3043 2.8929-2.4233 1.6892-4.7048 3.3249-7.1099 5.0425-16.106 11.502-39.779 30.805-41.84 55.566-4.5786-1.2226-23.795-23.517-28.12-28.342-4.2213-4.7084-9.3509-10.052-14.546-13.684-1.4994-1.0484-9.4599-6.5941-4.8166-1.1835 2.077 2.4201 3.9929 5.5416 5.6231 8.4161 6.6891 11.795 12.852 25.02 19.306 37.156 3.2614 6.1322 6.8409 11.999 11.023 17.208 2.3398 2.9141 11.473 12.35 14.896 13.148-0.3834 4.6078-18.467 15.537-23.057 17.887-9.4905 4.8607-21.005 5.8028-32.47 8.4739v0.3739l21.117 1.2742 1.1314-0.1524c12.965 0 26.395-3.7606 36.444-6.9305 5.4511-1.7193 10.566-3.8858 15.13-6.5568 5.2533-3.074 8.0955-6.5876 12.178-9.3218 2.4661 10.586 14.022 19.905 14.022 35.896v6.5436l0.3215 0.0518-2.9817 18.48c2.8578-0.0901 8.3189-15.321 9.261-19.41 1.5435-6.697 2.9342-17.693 2.9342-25.858v-6.5436c0-14.86-4.8737-26.42-10.844-35.335 6.6373-4.4445 8.9859-8.4131 20.752-8.4131 7.9542 0 15.364 2.4543 20.951 4.8498 3.57 1.5308 15.552 8.6977 16.628 8.9851-3.4568-5.1623-20.172-15.975-26.617-19.375-8.9079-4.6981-22.923-9.604-36.388-9.604h-2.0566l-11.606 1.1846c-0.4251-0.7066-2.0421-3.4864-2.0421-4.5499z" fill="#000069"/>
      <path class="fil2" d="m32.57 163.76c-0.0733 0.0441-0.3387-0.0893-0.5585-0.1476l0.2099-0.7405-0.4615-0.0478 0.4409-0.7059 0.9325 0.092 0.1056-0.1585 0.8416 1.3661-0.5508 0.4087zm-1.6802 0.2263c0 1.2538 1.3811 2.2435 2.6174 2.2435 1.2159 0 2.4305-0.8087 2.4305-2.0566 0-1.2176-1.24-2.4304-2.4305-2.4304h-0.9348c-0.924 0-1.6826 0.7585-1.6826 1.6826z" fill="#f5eb23"/>
      <path class="fil1" d="m168.87 170.71-0.0104 0.9403 0.3843 0.7424c0.6514-0.3014 1.1217 0.3379 1.1217-0.5609v-0.9348c0-0.6754-0.3794-0.5444-0.7478-0.3739l-0.0935-0.4674z" fill="#100c0f"/>
      <path class="fil0" d="m170.36 171.83c0 0.8988-0.4703 0.2595-1.1217 0.5609l-0.3843-0.7424 0.0104-0.9403 0.6543-0.6543 0.0935 0.4674c0.3684-0.1705 0.7478-0.3015 0.7478 0.3739zm-0.7478 3.7392c1.1108 0 2.2435-1.6634 2.2435-2.4305v-0.3739c0-1.2216-0.677-3.1783-1.6826-3.1783h-0.5609c-0.7246 0-1.6826 1.644-1.6826 2.4304v1.3088c0 0.8547 0.8773 2.2435 1.6826 2.2435z" fill="#f1e726"/>
      <path class="fil3" d="m80.434 189.41c6.4356-0.5356 23.541-13.918 27.608-18.384 3.6455-4.0039 6.8861-8.4702 10.016-12.98 1.6162-2.3285 3.012-4.5209 4.428-6.9769 3.1998-5.5501 0.9291-3.1079-0.1729-7.8379-4e-3 1e-3 -10.76 7.9598-12.918 9.1434-4.2836 2.3493-3.8191 0.6469-5.383 5.6475-0.8464 2.7064-1.8468 5.5308-2.9004 8.1302-4.0316 9.9466-20.597 22.956-20.678 23.258z" fill="#8a016e"/>
      <path class="fil1" d="m76.321 191.28c0.7148 0 0.068 0.0575 0.5609-0.1869 0.0036 3e-3 0.3487 0.1869 0.3739 0.1869 0.3166 0 0.6986-0.249 0.9348-0.3739-0.0031-4e-3 -0.187-0.3488-0.187-0.3739 0-0.4217-0.0718 0.0867 0.1457-0.3084l-0.5196-0.4394c-0.5995 0.2876-1.2377 0.0528-1.5421 0.3354-0.0907 0.084-0.2547 1.1602 0.2334 1.1602z" fill="#100c0f"/>
      <path class="fil0" d="m76.321 191.28c-0.4881 0-0.3241-1.0762-0.2334-1.1602 0.3044-0.2826 0.9426-0.0478 1.5421-0.3354l0.5196 0.4394c-0.2175 0.3951-0.1457-0.1133-0.1457 0.3084 0 0.0251 0.1839 0.3703 0.187 0.3739-0.2362 0.1249-0.6182 0.3739-0.9348 0.3739-0.0252 0-0.3703-0.184-0.3739-0.1869-0.4929 0.2444 0.1539 0.1869-0.5609 0.1869zm0.7478 2.0566c1.2103 0 2.9914-1.0699 2.9914-2.0566v-0.5608c0-0.8129-1.4062-1.3087-2.2435-1.3087-1.5554 0-3.5523 0.7352-3.5523 2.2435v0.3739c0 0.5953 0.9526 1.3087 1.6827 1.3087z" fill="#f1e726"/>
      <path class="fil1" d="m132.47 204.96c-0.0569-0.03 0.127 0.3153 0.127 0.3404 0 0.7148 0.0575 0.068-0.1869 0.5609 0.1506 0.1046 0.4616 0.3739 0.5609 0.3739 0.2734 0 0.2743-0.2305 0.37-0.3637l0.5376 0.1542 0.4011-0.5384c-0.0981-0.463 0.0684-1.1217-0.3739-1.0594l-1.1076-0.0544z" fill="#100c0f"/>
      <path class="fil0" d="m132.8 204.37 1.1076 0.0544c0.4423-0.0623 0.2758 0.5964 0.3739 1.0594l-0.4011 0.5384-0.5376-0.1542c-0.0957 0.1332-0.0966 0.3637-0.37 0.3637-0.0993 0-0.4103-0.2693-0.5609-0.3739 0.2444-0.4929 0.1869 0.1539 0.1869-0.5609 0-0.0251-0.1839-0.3704-0.127-0.3404zm0.3597 4.2922c1.5508 0 2.8044-1.2221 2.8044-2.6175 0-1.3121-0.5753-2.4304-1.8696-2.4304-1.3692 0-2.8044 1.4996-2.8044 2.8043v0.374c0 0.7691 0.9146 1.8696 1.4957 1.8696z" fill="#f1e726"/>
    
    <g stroke-width=".7">
      <g fill="#ef9a48">
        <path class="fil5 str0" d="m78.989 108.48 3.2672 9.6458c1.7051 9.1573 4.5186 14.746 8.09 17.892 3.6227 5.9637 7.7351 11.356 12.602 15.869 5.1054 6.2122 11.668 5.8251 18.203-1.2447 8.4429-9.1337 12.62-24.957 14.469-42.473 2.1445-20.32-19.658-32.544-28.938-14.78-5.5211 10.569-7.1694 8.8107-14.936 1.4002-7.6232-7.2742-17.797-2.9019-12.757 13.691zm5.3635 5.1017c8.9195 0.3733 15.196 1.755 16.247 5.1308-6.6183 3.3716-11.804 0.814-16.247-5.1308zm21.132 26.45c1.1172 0.6339 1.9031 0.6522 2.7173 0 1.5111-1.2104 2.6307-1.1072 5.0464-1.9798 3.829-1.3829 5.5224-4.9806 8.2836-7.471-5.3402 7.2001-9.8631 20.142-18.08 12.022-2.061-2.0367-2.113-2.6596-8.0555-7.5845-0.2439-0.2021-0.4977-0.4115-0.7619-0.6285 2.7368 1.6347 5.1631 3.5799 8.2105 4.904 0.8719 0.3557 1.4019 0.0354 2.6397 0.7376zm3.3772-22.088c-1.5169-6.167 4.1821-8.7262 15.294-8.5789-4.5715 4.1162-9.3746 7.6794-15.294 8.5789z" stroke="#000"/>
        <path class="fil5 str1" d="m100.71 118.53c-1.0516-3.3758-7.3278-4.7574-16.247-5.1307 4.4434 5.9447 9.6291 8.5024 16.247 5.1307zm23.557-9.3473c-11.112-0.1473-16.811 2.4119-15.294 8.5789 5.9199-0.8995 10.723-4.4627 15.294-8.5789zm-35.974-2.1834c2.7985 2.42 5.5971 4.3441 8.3958 4.8975 5.692 1.8337 6.0633 5.78 5.6749 10.028v10.028c-0.3456 3.7584 1.9953 4.3155 3.382 2.6812 0.7507-0.8847 2.3065-1.9407 3.6296-2.0826 2.0342-0.2182 3.6501-0.1273 2.5503-3.5137m-5.9859 0.5829c-0.0259-4.5606-0.0518-9.1212-0.0778-13.682m1.477-3.265c1.7889-3.673 7.0256-5.8765 14.537-6.9187m-23.555 8.7067c-4.8923-2.68-10.023-3.7684-15.392-3.265m5.2863-7.4629c10.673 9.9279 15.458 8.3689 19.512-1.3216 5.3222-12.722 15.496-13.578 24.021-0.7774m-10.106 28.763c-5.3402 7.2001-9.8631 20.142-18.08 12.022-2.1457-2.1203-2.1139-2.7084-8.8174-8.213 2.7368 1.6346 5.1631 3.5798 8.2105 4.904 0.8718 0.3556 1.4019 0.0354 2.6397 0.7375 1.1172 0.6339 1.9031 0.6523 2.7173 0 1.511-1.2103 2.6307-1.1071 5.0464-1.9797 3.829-1.383 5.5223-4.9806 8.2836-7.471zm-26.136 4.4377c2.4388 1.833 4.8643 3.6893 7.4098 5.3624 0.8399 0.5613 1.8411 1.1002 3.0666 1.5034 1.2763 0.4425 2.3106 0.6917 3.4161-0.3 0.6999-0.6279 1.1838-1.146 2.3291-1.5916 4.7203-1.353 6.6093-6.2746 9.914-9.4119m-42.543-22.101c-5.0394-16.593 5.1342-20.965 12.757-13.691 7.7662 7.4105 9.4145 9.1684 14.936-1.4002 9.2798-17.764 31.082-5.5396 28.938 14.78-1.8485 17.516-6.0258 33.339-14.469 42.473-6.5352 7.0697-13.097 7.4568-18.203 1.2446-4.8668-4.5127-8.9792-9.9052-12.602-15.869-3.5714-3.1459-6.3849-8.7343-8.0901-17.892zm27.151 30.108c0.109-0.515-0.0776-4.5407 1.6337-0.1029m1.6425 15.407c-2.8013-2.5322 2.2691-4.2603 1.5174-0.4497m17.218-30.027c0.1555 7.727-2.5411 16.906-6.5343 22.559m-5.7564-18.358c6.638-3.5784 9.7495-2.593 9.3347 2.956m-38.505-2.4893c1.6604 3.8867 6.5599 4.4305 10.19-1.4002m-15.85-19.112c-0.907-14.433 3.5417-16.774 11.894-5.1308 4.398 6.1311 8.3533 7.24 12.438-1.7102 7.2681-15.925 18.877-14.804 26.41-3.5271m-25.322 13.089c6.9493-12.412 13.185-17.206 18.268-9.7173" stroke="#1f1a17"/>
      </g><g stroke="#000">
      <path class="fil6 str0" d="m113.36 137.87c-2.4158 0.8724-3.5353 0.7696-5.0467 1.9799-0.8139 0.6519-1.5998 0.6336-2.7173 1e-4 -1.2379-0.7026-1.7679-0.3822-2.6394-0.7377-3.0475-1.3242-5.4738-3.2698-8.2108-4.9045 0.2643 0.217 0.5182 0.4265 0.7618 0.6289 0.0024 2e-3 0.0046 3e-3 0.0067 5e-3 0.2421 0.1821 0.4843 0.3644 0.7264 0.5467 2.1931 1.6515 4.3868 3.3053 6.677 4.8108 0.8399 0.5613 1.8411 1.1001 3.0666 1.5032 1.2763 0.443 2.3106 0.6919 3.4163-0.3 0.6996-0.6276 1.1836-1.1464 2.3287-1.5915 4.1848-1.1994 6.1442-5.2036 8.8377-8.283 0.3448-0.3941 0.7015-0.773 1.0765-1.129-2.7615 2.4903-4.4546 6.0882-8.2835 7.4712z" fill="#fff"/>
      <path class="fil7 str0" d="m108.97 117.76c5.836-0.8866 10.587-4.3621 15.1-8.4044-7.7247-0.0931-12.818 1.1294-14.67 3.9726-0.7069 1.1955-0.8643 2.6657-0.4299 4.4318z" fill="#0a0b0c"/>
      <path class="fil7 str0" d="m100.57 118.6c-1.1356-3.27-7.2679-4.6327-15.965-5.0173 4.3803 5.7695 9.4834 8.2448 15.965 5.0173z" fill="#0a0b0c"/>
    </g></g>
  </g>
</svg>
