<?xml version="1.0" encoding="UTF-8" standalone="no"?>
<svg xmlns:inkscape="http://www.inkscape.org/namespaces/inkscape" xmlns:sodipodi="http://sodipodi.sourceforge.net/DTD/sodipodi-0.dtd" xmlns="http://www.w3.org/2000/svg" xmlns:svg="http://www.w3.org/2000/svg" width="100.00143mm" height="65.996529mm" version="1.1" viewBox="0 0 100.00143 65.996529" xml:space="preserve" id="svg18" sodipodi:docname="kicksecure.svg" inkscape:version="1.4.3 (0d15f75042, 2025-12-25)">
  <sodipodi:namedview id="namedview18" pagecolor="#ffffff" bordercolor="#000000" borderopacity="0.25" inkscape:showpageshadow="2" inkscape:pageopacity="0.0" inkscape:pagecheckerboard="0" inkscape:deskcolor="#d1d1d1" inkscape:document-units="mm" inkscape:zoom="2.2304375" inkscape:cx="188.75221" inkscape:cy="124.8634" inkscape:window-width="1920" inkscape:window-height="1052" inkscape:window-x="0" inkscape:window-y="0" inkscape:window-maximized="1" inkscape:current-layer="svg18"/>
  <defs id="defs11">
    <filter id="filter93606-9" x="-0.43466518" y="-0.42721901" width="2.0339763" height="2.0162634" color-interpolation-filters="sRGB">
      <feFlood flood-color="rgb(0,0,0)" flood-opacity=".25098" result="flood" id="feFlood1"/>
      <feComposite in="flood" in2="SourceGraphic" operator="in" result="composite1" id="feComposite1"/>
      <feGaussianBlur in="composite1" result="blur" stdDeviation="1.1" id="feGaussianBlur1"/>
      <feOffset dx="1" dy="1" result="offset" id="feOffset1"/>
      <feComposite in="SourceGraphic" in2="offset" result="composite2" id="feComposite2"/>
    </filter>
    <filter id="filter93630-3" x="-0.42120395" y="-0.19662219" width="2.0019548" height="1.4677225" color-interpolation-filters="sRGB">
      <feFlood flood-color="rgb(0,0,0)" flood-opacity=".25098" result="flood" id="feFlood2"/>
      <feComposite in="flood" in2="SourceGraphic" operator="in" result="composite1" id="feComposite3"/>
      <feGaussianBlur in="composite1" result="blur" stdDeviation="1.1" id="feGaussianBlur3"/>
      <feOffset dx="1" dy="1" result="offset" id="feOffset3"/>
      <feComposite in="SourceGraphic" in2="offset" result="composite2" id="feComposite4"/>
    </filter>
    <filter id="filter93618-4" x="-0.17333688" y="-0.16695796" width="1.4123317" height="1.3971576" color-interpolation-filters="sRGB">
      <feFlood flood-color="rgb(0,0,0)" flood-opacity=".25098" result="flood" id="feFlood4"/>
      <feComposite in="flood" in2="SourceGraphic" operator="in" result="composite1" id="feComposite5"/>
      <feGaussianBlur in="composite1" result="blur" stdDeviation="1.1" id="feGaussianBlur5"/>
      <feOffset dx="1" dy="1" result="offset" id="feOffset5"/>
      <feComposite in="SourceGraphic" in2="offset" result="composite2" id="feComposite6"/>
    </filter>
    <linearGradient id="linearGradient116950" x1="-10.232" x2="-7.6178999" y1="1398.7" y2="1416.3" gradientTransform="translate(18.451,-1386.1)" gradientUnits="userSpaceOnUse">
      <stop stop-color="#a3cfff" offset="0" id="stop6"/>
      <stop stop-color="#54a2f9" offset="1" id="stop7"/>
    </linearGradient>
    <linearGradient id="linearGradient116952" x1="36.553001" x2="60.529999" y1="845.72998" y2="845.72998" gradientTransform="rotate(-90,-372.51,442.76)" gradientUnits="userSpaceOnUse">
      <stop stop-color="#2e57a7" offset="0" id="stop8"/>
      <stop stop-color="#4268be" offset=".13217" id="stop9"/>
      <stop stop-color="#366cca" offset=".898" id="stop10"/>
      <stop stop-color="#2e57a7" offset="1" id="stop11"/>
    </linearGradient>
  </defs>
  <g display="none" id="g11" transform="translate(-1.1199598e-4,-17.00245)">
    <rect x="4.4847002" y="694.15997" width="201.67999" height="334.54001" fill="#cccccc" style="paint-order:fill markers stroke" id="rect11"/>
  </g>
  <g transform="matrix(2.3664,0,0,2.3664,-2.7020598e-4,-16.88947)" id="g17">
    <g stroke-linecap="round" stroke-linejoin="round" id="g13">
      <path d="m 20.706,9.5614 c -0.6473,0.8343 0.027,2.5052 0,4.0335 l -7.0124,0.027 c -2.6375,0 -5.0746,1.407 -6.3934,3.6912 -1.3186,2.2841 -1.3186,5.0982 0,7.3822 1.3188,2.2842 3.7559,3.6913 6.3934,3.6913 v -2e-4 h 7.0124 c 0.086,1.6329 -0.5187,2.8214 0,4.0606 l -7.0124,0.4833 c -7.2827,0 -9.882,-2.7456 -11.683,-5.777 -2.044,-3.5403 -1.9858,-8.33 0.058,-11.87 2.044,-3.5404 5.4487,-6.1749 11.625,-6.1749 z" fill="url(#linearGradient116950)" stroke="#2e57a7" style="fill:url(#linearGradient116950);paint-order:fill markers stroke" id="path11"/>
      <path d="M 3.3091,18.409 C 2.95397,15.6149 4.7967,12.6009 8.2193,12.5726 6.1062,12.993 3.6733,16.3265 3.3091,18.409 Z" fill="#ffffff" fill-rule="evenodd" stroke="#ffffff" stroke-width="0.49896" id="path12"/>
      <path d="m 41.959,12.023 v 18.225 c 0,2.2969 -1.7717,4.1051 -3.9716,4.1461 l -17.847,0.3321 c -7.4191,-1.5727 -6.6699,-27.078 0,-27.289 l 17.847,0.4388 c 2.1996,0.054 3.9716,1.8492 3.9716,4.1462 z" fill="url(#linearGradient116952)" stroke="#2e57a6" stroke-width="0.6" style="fill:url(#linearGradient116952);paint-order:fill markers stroke" id="path13"/>
    </g>
    <g transform="translate(18.629,-1386.2)" fill-rule="evenodd" id="g16">
      <path d="m 14.312,1409 -1.7421,3.6488 1.4442,1.7061 c 0.30446,0.383 0.93207,0.8246 1.9718,0.8246 h 2.0085 c 0.70031,6e-4 0.81136,-0.5824 0.44187,-0.999 z" fill="#a3cfff" filter="url(#filter93606-9)" id="path14"/>
      <path d="m 8.2833,1398.9 -3.21,2.0865 c -0.44916,0.3221 -0.65452,0.4584 -0.85063,1.2315 l -1.1645,9.957 6.2052,-12.647 c 0.31071,-0.7229 -0.61858,-0.9696 -0.98008,-0.6284 z" fill="#a3cfff" filter="url(#filter93630-3)" id="path15"/>
      <path d="m 16.844,1399.5 -5.2015,6.4178 -3.0317,-3.5112 -5.8121,11.796 c -0.21385,0.7667 0.82105,1.0229 1.0978,0.6421 l 5.113,-6.1118 2.9676,3.5979 5.9484,-12.158 c 0.33806,-0.6925 -0.54918,-1.3704 -1.0814,-0.6733 z" fill="#fff215" filter="url(#filter93618-4)" id="path16"/>
    </g>
  </g>
  <text transform="matrix(0.26458,0,0,0.26458,-1.1199598e-4,-17.00245)" fill="#000000" font-family="'Source Sans Pro'" font-size="26.667px" letter-spacing="7.92px" word-spacing="0px" style="line-height:100%;white-space:pre;shape-inside:url(#rect5557)" xml:space="preserve" id="text17"/>
  <g display="none" fill="none" stroke="#000000" stroke-width="0.26458px" id="g18" transform="translate(-1.1199598e-4,-17.00245)">
    <path d="m 53.82,194.18 24.941,23.572" id="path17"/>
    <path d="m 57.849,191.59 24.327,23.274" display="inline" id="path18"/>
  </g>
</svg>
