<?xml version="1.0" encoding="UTF-8"?>
<svg xmlns="http://www.w3.org/2000/svg" width="160" height="160" fill="none" version="1.1" viewBox="0 0 160 160">
  <g fill="#3b45fd">
    <path d="m 80,0 c 4.1505,0 8.2271,0.31607 12.2072,0.925452 L 91.0628,8.3387 C 87.4559,7.78644 83.7614,7.5 80,7.5 76.2388,7.5 72.5445,7.78641 68.9377,8.33862 L 67.7933,0.925375 C 71.7732,0.316043 75.8497,0 80,0 Z"/>
    <path d="m98.985 2.2662-1.7798 7.2876c7.3099 1.779 14.185 4.6661 20.439 8.4731l3.895-6.411c-6.901-4.2009-14.488-7.3866-22.554-9.3496z"/>
    <path d="m127.28 15.459-4.432 6.0507c5.977 4.3861 11.257 9.6664 15.643 15.644l6.051-4.4324c-4.84-6.5957-10.666-12.422-17.262-17.262z"/>
    <path d="m148.38 38.462-6.411 3.8942c3.807 6.2541 6.694 13.13 8.473 20.44l7.288-1.7798c-1.963-8.0657-5.149-15.653-9.35-22.554z"/>
    <path d="m159.08 67.793-7.414 1.1444c0.553 3.6067 0.839 7.301 0.839 11.062 0 3.7614-0.286 7.4559-0.839 11.063l7.414 1.1444c0.609-3.9801 0.925-8.0567 0.925-12.207 0-4.1503-0.316-8.2267-0.925-12.207z"/>
    <path d="m141.97 117.64c3.807-6.255 6.694-13.13 8.473-20.44l7.288 1.7798c-1.963 8.0662-5.149 15.653-9.35 22.554z"/>
    <path d="m138.49 122.85 6.051 4.432c-4.84 6.596-10.666 12.422-17.262 17.262l-4.433-6.051c5.978-4.386 11.258-9.666 15.644-15.643z"/>
    <path d="m117.64 141.97 3.894 6.411c-6.901 4.201-14.488 7.387-22.554 9.35l-1.7798-7.288c7.3095-1.779 14.186-4.666 20.44-8.473z"/>
    <path d="m91.062 151.66 1.1445 7.414c-3.9799 0.609-8.0564 0.925-12.207 0.925-4.1505 0-8.2272-0.316-12.207-0.925l1.1442-7.413c3.6054 0.552 7.2997 0.838 11.063 0.838 3.7612 0 7.4555-0.286 11.062-0.839z"/>
    <path d="m62.794 150.45-1.7794 7.286c-6.0589-1.475-11.848-3.639-17.278-6.406l-7.5927 1.772-1.7042-7.304 10.26-2.394 2.4408 1.243c4.9187 2.506 10.162 4.467 15.654 5.803z"/>
    <path d="m28.11 147.27 1.7042 7.304-13.014 3.036c-8.6608 2.021-16.434-5.752-14.413-14.412l3.0367-13.015 7.3038 1.704-3.0368 13.015c-0.75782 3.248 2.157 6.162 5.4048 5.405z"/>
    <path d="m14.204 125.56-7.3038-1.704 1.7716-7.593c-2.7666-5.431-4.9312-11.22-6.4058-17.279l7.2859-1.7794c1.336 5.4911 3.2971 10.735 5.8028 15.654l1.2435 2.441z"/>
    <path d="M 8.33759,91.0624 0.925362,92.2066 C 0.316038,88.2267 0,84.1503 0,80 0,75.8495 0.316067,71.7729 0.925446,67.7928 L 8.33869,68.9372 C 7.78644,72.5442 7.5,76.2386 7.5,80 c 0,3.7631 0.28613,7.4572 0.83759,11.0624 z"/>
    <path d="m9.5537 62.795-7.2876-1.7798c1.963-8.0657 5.1487-15.653 9.3496-22.554l6.411 3.8942c-3.807 6.2541-6.6941 13.13-8.4731 20.44z"/>
    <path d="m21.51 37.153-6.0507-4.4324c4.8398-6.5957 10.666-12.422 17.262-17.262l4.4324 6.0507c-5.9773 4.3861-11.258 9.6663-15.644 15.644z"/>
    <path d="m42.356 18.027-3.8943-6.4111c6.9011-4.2008 14.488-7.3864 22.554-9.3494l1.7798 7.2876c-7.3096 1.779-14.185 4.6659-20.44 8.473z"/>
    <path d="m145 80c0 35.899-29.101 65-65 65-11.387 0-22.089-2.928-31.396-8.072-0.8961-0.495-1.9417-0.658-2.9389-0.426l-28.913 6.747 6.7465-28.914c0.2326-0.997 0.0692-2.043-0.426-2.939-5.1439-9.307-8.0717-20.01-8.0717-31.396 0-35.898 29.102-65 65-65 35.899 0 65 29.102 65 65z"/>
  </g>
</svg>
