<?xml version="1.0" encoding="UTF-8"?>
<svg xmlns="http://www.w3.org/2000/svg" xmlns:xlink="http://www.w3.org/1999/xlink" width="160" height="160" viewBox="0 0 160 160">
  <path fill-rule="nonzero" fill="rgb(23.137255%, 27.058824%, 99.215686%)" fill-opacity="1" d="M 80 0 C 84.152344 0 88.226562 0.316406 92.207031 0.925781 L 91.0625 8.339844 C 87.457031 7.785156 83.761719 7.5 80 7.5 C 76.238281 7.5 72.542969 7.785156 68.9375 8.339844 L 67.792969 0.925781 C 71.773438 0.316406 75.851562 0 80 0 Z M 80 0 "/>
  <path fill-rule="nonzero" fill="rgb(23.137255%, 27.058824%, 99.215686%)" fill-opacity="1" d="M 98.984375 2.265625 L 97.207031 9.554688 C 104.515625 11.332031 111.390625 14.21875 117.644531 18.027344 L 121.539062 11.617188 C 114.636719 7.414062 107.050781 4.230469 98.984375 2.265625 Z M 98.984375 2.265625 "/>
  <path fill-rule="nonzero" fill="rgb(23.137255%, 27.058824%, 99.215686%)" fill-opacity="1" d="M 127.28125 15.460938 L 122.847656 21.507812 C 128.824219 25.894531 134.105469 31.175781 138.492188 37.152344 L 144.542969 32.722656 C 139.703125 26.125 133.875 20.300781 127.28125 15.460938 Z M 127.28125 15.460938 "/>
  <path fill-rule="nonzero" fill="rgb(23.137255%, 27.058824%, 99.215686%)" fill-opacity="1" d="M 148.378906 38.460938 L 141.96875 42.355469 C 145.777344 48.609375 148.664062 55.484375 150.441406 62.796875 L 157.730469 61.015625 C 155.765625 52.949219 152.582031 45.363281 148.378906 38.460938 Z M 148.378906 38.460938 "/>
  <path fill-rule="nonzero" fill="rgb(23.137255%, 27.058824%, 99.215686%)" fill-opacity="1" d="M 159.078125 67.792969 L 151.664062 68.9375 C 152.21875 72.542969 152.503906 76.238281 152.503906 80 C 152.503906 83.761719 152.21875 87.457031 151.664062 91.0625 L 159.078125 92.207031 C 159.6875 88.226562 160.003906 84.148438 160.003906 80 C 160.003906 75.847656 159.6875 71.773438 159.078125 67.792969 Z M 159.078125 67.792969 "/>
  <path fill-rule="nonzero" fill="rgb(23.137255%, 27.058824%, 99.215686%)" fill-opacity="1" d="M 141.96875 117.640625 C 145.777344 111.386719 148.664062 104.511719 150.441406 97.199219 L 157.730469 98.980469 C 155.769531 107.046875 152.582031 114.632812 148.382812 121.535156 Z M 141.96875 117.640625 "/>
  <path fill-rule="nonzero" fill="rgb(23.137255%, 27.058824%, 99.215686%)" fill-opacity="1" d="M 138.488281 122.851562 L 144.539062 127.28125 C 139.699219 133.878906 133.875 139.703125 127.277344 144.542969 L 122.847656 138.492188 C 128.824219 134.105469 134.105469 128.828125 138.488281 122.851562 Z M 138.488281 122.851562 "/>
  <path fill-rule="nonzero" fill="rgb(23.137255%, 27.058824%, 99.215686%)" fill-opacity="1" d="M 117.640625 141.96875 L 121.535156 148.382812 C 114.632812 152.582031 107.046875 155.769531 98.980469 157.730469 L 97.199219 150.441406 C 104.507812 148.664062 111.386719 145.777344 117.640625 141.96875 Z M 117.640625 141.96875 "/>
  <path fill-rule="nonzero" fill="rgb(23.137255%, 27.058824%, 99.215686%)" fill-opacity="1" d="M 91.0625 151.660156 L 92.207031 159.074219 C 88.226562 159.683594 84.148438 160 80 160 C 75.847656 160 71.773438 159.683594 67.792969 159.074219 L 68.9375 151.660156 C 72.542969 152.214844 76.238281 152.5 80 152.5 C 83.761719 152.5 87.457031 152.214844 91.0625 151.660156 Z M 91.0625 151.660156 "/>
  <path fill-rule="nonzero" fill="rgb(23.137255%, 27.058824%, 99.215686%)" fill-opacity="1" d="M 62.792969 150.449219 L 61.015625 157.734375 C 54.957031 156.261719 49.167969 154.097656 43.738281 151.328125 L 36.144531 153.101562 L 34.441406 145.796875 L 44.699219 143.402344 L 47.140625 144.648438 C 52.058594 147.152344 57.300781 149.113281 62.792969 150.449219 Z M 62.792969 150.449219 "/>
  <path fill-rule="nonzero" fill="rgb(23.137255%, 27.058824%, 99.215686%)" fill-opacity="1" d="M 28.109375 147.269531 L 29.8125 154.574219 L 16.800781 157.609375 C 8.140625 159.632812 0.367188 151.859375 2.386719 143.199219 L 5.425781 130.183594 L 12.726562 131.886719 L 9.691406 144.902344 C 8.933594 148.148438 11.847656 151.0625 15.09375 150.308594 Z M 28.109375 147.269531 "/>
  <path fill-rule="nonzero" fill="rgb(23.137255%, 27.058824%, 99.215686%)" fill-opacity="1" d="M 14.203125 125.558594 L 6.898438 123.855469 L 8.671875 116.261719 C 5.90625 110.832031 3.742188 105.042969 2.265625 98.984375 L 9.550781 97.203125 C 10.886719 102.695312 12.847656 107.941406 15.355469 112.859375 L 16.597656 115.300781 Z M 14.203125 125.558594 "/>
  <path fill-rule="nonzero" fill="rgb(23.137255%, 27.058824%, 99.215686%)" fill-opacity="1" d="M 8.335938 91.0625 L 0.925781 92.207031 C 0.316406 88.226562 0 84.148438 0 80 C 0 75.847656 0.316406 71.773438 0.925781 67.792969 L 8.339844 68.9375 C 7.785156 72.542969 7.5 76.238281 7.5 80 C 7.5 83.761719 7.785156 87.457031 8.335938 91.0625 Z M 8.335938 91.0625 "/>
  <path fill-rule="nonzero" fill="rgb(23.137255%, 27.058824%, 99.215686%)" fill-opacity="1" d="M 9.554688 62.796875 L 2.265625 61.015625 C 4.230469 52.949219 7.414062 45.363281 11.617188 38.460938 L 18.027344 42.355469 C 14.21875 48.609375 11.332031 55.484375 9.554688 62.796875 Z M 9.554688 62.796875 "/>
  <path fill-rule="nonzero" fill="rgb(23.137255%, 27.058824%, 99.215686%)" fill-opacity="1" d="M 21.511719 37.152344 L 15.460938 32.71875 C 20.300781 26.125 26.125 20.296875 32.722656 15.457031 L 37.152344 21.507812 C 31.175781 25.894531 25.894531 31.175781 21.507812 37.152344 Z M 21.511719 37.152344 "/>
  <path fill-rule="nonzero" fill="rgb(23.137255%, 27.058824%, 99.215686%)" fill-opacity="1" d="M 42.355469 18.027344 L 38.460938 11.617188 C 45.363281 7.414062 52.949219 4.230469 61.015625 2.265625 L 62.796875 9.554688 C 55.484375 11.332031 48.609375 14.21875 42.355469 18.027344 Z M 42.355469 18.027344 "/>
  <path fill-rule="nonzero" fill="rgb(23.137255%, 27.058824%, 99.215686%)" fill-opacity="1" d="M 145 80 C 145 115.898438 115.898438 145 80 145 C 68.613281 145 57.910156 142.070312 48.605469 136.929688 C 47.707031 136.433594 46.664062 136.269531 45.664062 136.503906 L 16.753906 143.25 L 23.5 114.335938 C 23.730469 113.339844 23.566406 112.292969 23.074219 111.394531 C 17.929688 102.089844 15 91.386719 15 80 C 15 44.101562 44.101562 15 80 15 C 115.898438 15 145 44.101562 145 80 Z M 145 80 "/>
</svg>
