<?xml version="1.0" encoding="UTF-8"?>
<svg xmlns="http://www.w3.org/2000/svg" xmlns:xlink="http://www.w3.org/1999/xlink" width="229.130005" height="229.539993" viewBox="0 0 229.130005 229.539993">
<path fill-rule="evenodd" fill="rgb(2.745098%, 70.588235%, 72.54902%)" fill-opacity="1" d="M 57.789062 134.144531 L 95.472656 171.847656 L 114.675781 152.632812 L 114.667969 152.625 L 153.078125 114.199219 L 115.398438 76.5 L 115.40625 76.5 L 96.566406 57.648438 L 58.15625 96.078125 L 58.152344 96.074219 L 96.5625 57.648438 L 58.886719 19.945312 L 78.089844 0.730469 L 115.765625 38.429688 L 154.179688 0 L 173.015625 18.851562 L 134.605469 57.28125 L 172.28125 94.980469 L 210.695312 56.550781 L 229.535156 75.402344 L 191.121094 113.832031 L 228.804688 151.535156 L 209.601562 170.753906 L 171.917969 133.050781 L 133.511719 171.480469 L 171.191406 209.183594 L 151.988281 228.398438 L 114.304688 190.695312 L 75.902344 229.128906 L 57.0625 210.277344 L 95.46875 171.84375 L 57.785156 134.148438 Z M 57.789062 134.144531 "/>
<path fill-rule="evenodd" fill="rgb(2.352941%, 17.647059%, 33.72549%)" fill-opacity="1" d="M 19.929688 57.828125 L 57.605469 95.53125 L 96.015625 57.101562 L 114.855469 75.949219 L 76.445312 114.382812 L 114.125 152.082031 L 94.921875 171.300781 L 57.242188 133.597656 L 18.835938 172.03125 L -0.00390625 153.179688 L 38.402344 114.746094 L 0.726562 77.046875 Z M 19.929688 57.828125 "/>
</svg>
