<?xml version="1.0" encoding="UTF-8"?>
<svg xmlns="http://www.w3.org/2000/svg" width="229.54" height="229.13" fill="none" version="1.1" viewBox="0 0 229.54 229.13">
  <g transform="translate(-584.84 -1.9351)" clip-path="url(#clip0)" clip-rule="evenodd" fill-rule="evenodd">
    <path d="m642.63 136.08 37.681 37.702 19.204-19.215-7e-3 -6e-3 38.411-38.427-37.681-37.697 7e-3 -0.0033-18.839-18.851-38.411 38.431-3e-3 -0.0036 38.411-38.428-37.676-37.702 19.204-19.216 37.676 37.702 38.411-38.432 18.839 18.851-38.412 38.432 37.678 37.7 38.412-38.43 18.84 18.851-38.414 38.43 37.684 37.703-19.204 19.216-37.683-37.703-38.408 38.431 37.683 37.704-19.204 19.216-37.683-37.705-38.404 38.435-18.839-18.851 38.405-38.434-37.681-37.697z" fill="#07b4b9"/>
    <path d="m604.77 59.765 37.676 37.701 38.41-38.431 18.84 18.851-38.411 38.431 37.681 37.702-19.204 19.216-37.681-37.703-38.406 38.433-18.839-18.851 38.407-38.432-37.677-37.701z" fill="#062d56"/>
  </g>
  <defs>
    <clipPath id="clip0">
      <rect width="815" height="233" fill="#fff"/>
    </clipPath>
  </defs>
</svg>
