<?xml version="1.0" encoding="UTF-8"?>
<svg xmlns="http://www.w3.org/2000/svg" clip-rule="evenodd" fill-rule="evenodd" image-rendering="optimizeQuality" shape-rendering="geometricPrecision" text-rendering="geometricPrecision" version="1.1" viewBox="0 0 13333 13333" xml:space="preserve">
  <defs>
    <linearGradient id="id0" x1="6667" x2="6667" y1="13333" gradientUnits="userSpaceOnUse">
      <stop stop-color="#420C5D" offset="0"/>
      <stop stop-color="#951AD1" offset="1"/>
    </linearGradient>
    <linearGradient id="id1" x1="3659" x2="3659" y1="12734" y2="755" gradientUnits="userSpaceOnUse">
      <stop stop-color="#420C5D" offset="0"/>
      <stop stop-color="#951AD1" offset="1"/>
    </linearGradient>
  </defs>
  <g id="Tor_Browser_icon.svg">
    <g id="tor-browser-icon">
      <g id="Group">
        <g id="tb_icon_x002f_Stable">
          <g id="Stable">
            <circle id="background" cx="6667" cy="6667" r="6406" fill="#F2E4FF" fill-rule="nonzero"/>
            <path id="center" d="m6680 12121v-808c2560-7 4633-2084 4633-4646s-2073-4639-4633-4646v-808c3006 8 5441 2446 5441 5454s-2434 5447-5441 5454zm0-2829c1444-8 2613-1180 2613-2626s-1169-2618-2613-2626v-808c1890 7 3421 1541 3421 3434 0 1892-1530 3426-3421 3434v-808zm0-4039c775 7 1400 637 1400 1413 0 777-626 1406-1400 1414v-2827zm-6680 1413c0 3682 2985 6667 6667 6667s6667-2985 6667-6667-2985-6666-6667-6666-6667 2985-6667 6666z" fill="url(#id0)"/>
            <g id="half">
              <g filter="url(#filter-3)">
                <path d="m6667 755c-3322 0-6016 2682-6016 5990s2693 5990 6016 5990v-11979z"/>
              </g>
              <path d="m6667 755c-3322 0-6016 2682-6016 5990s2693 5990 6016 5990v-11979z" fill="url(#id1)"/>
            </g>
          </g>
        </g>
      </g>
    </g>
  </g>
</svg>
