<?xml version="1.0" encoding="UTF-8"?>
<svg xmlns="http://www.w3.org/2000/svg" width="600.62" height="441.91" version="1.0">
  <g stroke="#000" stroke-width="5.021">
    <path d="m92.865 2.532 85.05-0.014 70.041 260.92 89.44-260.86 51.745-0.026 84.8 260.68 79.3-260.72 44.872-4e-3 -122.07 356.48-50.175 0.057-83.407-256.35-92.39 256.28-50.174 0.03-107.04-356.47z" fill="#00844a"/>
    <path d="m47.777 42.748 85.05-0.013 70.041 260.92 89.44-260.86 51.745-0.027 84.8 260.68 79.3-260.72 44.872-4e-3 -122.07 356.48-50.175 0.057-83.407-256.35-92.39 256.28-50.174 0.03-107.04-356.47z" fill="#cee7ce"/>
    <path d="M2.51 82.885l85.05-.014 70.042 260.923 89.44-260.856 51.744-.026 84.8 260.679 79.3-260.723 44.872-.004-122.066 356.474-50.175.058-83.407-256.352-92.39 256.279-50.174.03L2.51 82.885z" fill="#fff"/>
  </g>
</svg>
